<svg width="91" height="94" viewBox="0 0 91 94" fill="none" xmlns="http://www.w3.org/2000/svg">
<path d="M32.2377 21.0994C33.4052 20.0141 33.4998 18.1567 32.4491 16.9508C31.3985 15.745 29.6004 15.6472 28.433 16.7325L21.845 22.8572C19.0531 25.4526 16.7371 27.6055 15.1468 29.5583C13.4746 31.6116 12.2859 33.8177 12.2859 36.5409C12.2859 39.2642 13.4746 41.4705 15.1468 43.5236C16.7371 45.4764 19.0531 47.6294 21.845 50.2246L28.433 56.3495C29.6004 57.4348 31.3985 57.3369 32.4491 56.1309C33.4998 54.925 33.4052 53.0677 32.2377 51.9824L25.8053 46.0024C22.8179 43.2251 20.8038 41.3436 19.4991 39.7416C18.2469 38.204 17.9734 37.3063 17.9734 36.5409C17.9734 35.7755 18.2469 34.8779 19.4991 33.3403C20.8038 31.7382 22.8179 29.8567 25.8053 27.0794L32.2377 21.0994Z" fill="#5900B9" fill-opacity="0.98"/>
<path d="M58.5547 41.1183C59.6054 39.9124 61.4034 39.8145 62.5708 40.8998L69.1589 47.0247C71.9507 49.6199 74.2666 51.7729 75.8572 53.7257C77.5293 55.7792 78.718 57.9851 78.718 60.7083C78.718 63.4316 77.5293 65.6379 75.8572 67.691C74.2666 69.6438 71.9507 71.7968 69.1589 74.392L62.5708 80.5169C61.4034 81.6022 59.6054 81.5043 58.5547 80.2983C57.504 79.0924 57.5988 77.2351 58.7663 76.1498L65.1985 70.1698C68.1859 67.3925 70.2001 65.5109 71.5048 63.909C72.7572 62.3713 73.0305 61.4736 73.0305 60.7083C73.0305 59.943 72.7572 59.0453 71.5048 57.5076C70.2001 55.9057 68.1859 54.0241 65.1985 51.2468L58.7663 45.2669C57.5988 44.1816 57.504 42.3243 58.5547 41.1183Z" fill="#5900B9" fill-opacity="0.98"/>
<path opacity="0.5" d="M53.7647 16.7442C55.2825 17.1609 56.1857 18.7698 55.7822 20.3377L40.6656 79.0877C40.2622 80.6555 38.7046 81.5889 37.1869 81.1721C35.6691 80.7554 34.7656 79.1464 35.169 77.5786L50.2859 18.8286C50.6893 17.2606 52.2465 16.3275 53.7647 16.7442Z" fill="#5900B9" fill-opacity="0.98"/>
</svg>
