<svg width="51" height="51" viewBox="0 0 51 51" fill="none" xmlns="http://www.w3.org/2000/svg">
<path d="M45.9643 36.8387V28.4978C45.9643 27.2662 44.9624 26.2642 43.7307 26.2642H26.7409V19.0777C30.962 18.4734 34.2178 14.8352 34.2178 10.4497C34.2178 5.6427 30.307 1.73193 25.5 1.73193C20.693 1.73193 16.7822 5.64287 16.7822 10.4497C16.7822 14.8353 20.038 18.4734 24.2591 19.0777V26.2642H7.26926C6.03764 26.2642 5.03567 27.2662 5.03567 28.4978V36.8387C2.16725 37.4163 0 39.9555 0 42.9917C0 46.4526 2.81565 49.268 6.27656 49.268C9.73746 49.268 12.5533 46.4526 12.5533 42.9917C12.5533 39.9555 10.3862 37.4164 7.51744 36.8385V28.746H24.2591V36.8387C21.3905 37.4163 19.2234 39.9555 19.2234 42.9917C19.2234 46.4526 22.0391 49.268 25.5 49.268C28.9609 49.268 31.7766 46.4526 31.7766 42.9917C31.7766 39.9555 29.6095 37.4164 26.7409 36.8387V28.746H43.4826V36.8385C40.614 37.4163 38.4467 39.9555 38.4467 42.9917C38.4467 46.4526 41.2624 49.268 44.7234 49.268C48.1843 49.268 51 46.4526 51 42.9917C51 39.9555 48.8328 37.4163 45.9643 36.8387ZM19.264 10.4497C19.264 7.01115 22.0614 4.2137 25.5 4.2137C28.9386 4.2137 31.736 7.01115 31.736 10.4497C31.736 13.8883 28.9386 16.6857 25.5 16.6857C22.0614 16.6859 19.264 13.8883 19.264 10.4497ZM10.0715 42.9917C10.0715 45.084 8.36918 46.7863 6.27656 46.7863C4.18409 46.7863 2.48177 45.084 2.48177 42.9917C2.48177 40.899 4.18409 39.1967 6.27656 39.1967C8.36902 39.1967 10.0715 40.899 10.0715 42.9917ZM29.2948 42.9917C29.2948 45.084 27.5925 46.7863 25.5 46.7863C23.4075 46.7863 21.7052 45.084 21.7052 42.9917C21.7052 40.899 23.4075 39.1967 25.5 39.1967C27.5925 39.1967 29.2948 40.899 29.2948 42.9917ZM44.7234 46.7863C42.631 46.7863 40.9285 45.084 40.9285 42.9917C40.9285 40.899 42.6308 39.1967 44.7234 39.1967C46.8159 39.1967 48.5182 40.899 48.5182 42.9917C48.5182 45.084 46.8159 46.7863 44.7234 46.7863Z" fill="#5900B9" fill-opacity="0.98"/>
</svg>
