<svg width="96" height="94" viewBox="0 0 96 94" fill="none" xmlns="http://www.w3.org/2000/svg">
<g clip-path="url(#clip0_11_72)">
<path d="M38.4404 8.55043V12.5833H28.0203V0.0917358H38.4404V4.51148H32.4862V8.55043H38.4404ZM49.1519 4.51148H53.3146V0.0917358H42.8935C42.8935 0.0917358 42.8935 2.31022 42.8935 4.51148C44.2876 5.89125 45.0146 6.55174 47.031 8.54731C45.8522 8.54731 42.8935 8.55116 42.8935 8.55116V12.5833H53.3146V8.55043L49.1519 4.51148ZM63.9218 4.51148H68.0841V0.0917358H57.6633C57.6633 0.0917358 57.6633 2.31022 57.6633 4.51148C59.0571 5.89125 59.7845 6.55174 61.8007 8.54731C60.6227 8.54731 57.6633 8.55116 57.6633 8.55116V12.5833H68.0843V8.55043L63.9218 4.51148ZM81.809 18.52L75.4789 86.3797L48.0522 93.6879L20.6249 86.3797L14.2958 18.52H81.809ZM69.0541 32.3181H48.0274H26.6291L27.6524 40.5127H48.0274H49.1719L48.0274 40.9842L28.3971 49.0758L29.0482 57.0856L48.0274 57.1466L58.1997 57.1786L57.548 67.8591L48.0274 70.512V70.5036L47.9493 70.5248L38.7541 68.2276L38.1961 61.598H38.1657H29.6366H29.6066L30.723 74.3967L48.0274 79.461V79.4519L48.0585 79.461L65.2704 74.4889L67.5037 49.076H48.0274H47.9793L48.0274 49.0555L68.2164 40.5129L69.0541 32.3181Z" fill="#8C20FF" fill-opacity="0.98"/>
</g>
<defs>
<clipPath id="clip0_11_72">
<rect width="94.7581" height="93.7799" fill="white" transform="translate(0.67334)"/>
</clipPath>
</defs>
</svg>
