<svg width="96" height="94" viewBox="0 0 96 94" fill="none" xmlns="http://www.w3.org/2000/svg">
<path fill-rule="evenodd" clip-rule="evenodd" d="M34.8398 4.99445C25.9359 4.99445 18.7178 12.138 18.7178 20.95C18.7178 26.328 21.4062 31.0845 25.5256 33.9751C21.4062 36.8655 18.7178 41.6221 18.7178 47C18.7178 52.3779 21.4062 57.1345 25.5256 60.0249C21.4062 62.9156 18.7178 67.6719 18.7178 73.0501C18.7178 81.8619 25.9359 89.0056 34.8398 89.0056C43.7438 89.0056 50.962 81.8619 50.962 73.0501V59.3571C53.7404 61.6062 57.2918 62.9555 61.1615 62.9555C70.0656 62.9555 77.2834 55.8122 77.2834 47C77.2834 41.6221 74.595 36.8655 70.4758 33.975C74.595 31.0845 77.2834 26.328 77.2834 20.95C77.2834 12.138 70.0656 4.99445 61.1615 4.99445H34.8398ZM45.0396 57.0943H34.8398C29.2067 57.0943 24.6402 52.5749 24.6402 47C24.6402 41.4252 29.2067 36.9056 34.8398 36.9057L45.0396 36.9056V47V57.0943ZM34.8398 31.0444H45.0396V10.8557H34.8398C29.2067 10.8557 24.6402 15.3751 24.6402 20.95C24.6402 26.525 29.2067 31.0444 34.8398 31.0444ZM71.361 20.95C71.361 26.5214 66.8004 31.0386 61.1725 31.0444L56.0671 31.0444H50.962V10.8557H61.1615C66.7945 10.8557 71.361 15.3751 71.361 20.95ZM50.962 46.9875C50.9687 41.4225 55.5258 36.9124 61.1489 36.9057H61.1714C66.8 36.9109 71.361 41.4283 71.361 47C71.361 52.5749 66.7945 57.0943 61.1615 57.0943C55.5325 57.0943 50.9687 52.5815 50.962 47.0125V46.9875ZM34.8398 62.9555C29.2067 62.9555 24.6402 67.4749 24.6402 73.0501C24.6402 78.625 29.2067 83.1444 34.8398 83.1444C40.473 83.1444 45.0396 78.625 45.0396 73.0501V62.9555H34.8398Z" fill="#8C20FF" fill-opacity="0.98"/>
</svg>
