<svg width="95" height="95" viewBox="0 0 95 95" fill="none" xmlns="http://www.w3.org/2000/svg">
<path d="M90.345 43.8952L51.5682 5.52159C50.5318 4.4988 49.1015 3.86578 47.5202 3.86578C45.939 3.86578 44.5087 4.4988 43.4723 5.52159L35.4386 13.487L45.6517 23.5947C46.3032 23.3691 47.0524 23.2401 47.8341 23.2401C51.5919 23.2401 54.636 26.2528 54.636 29.9718C54.636 30.7601 54.4998 31.5133 54.2481 32.2166L54.2629 32.1697L64.1 41.9111C64.7573 41.6796 65.5184 41.5448 66.309 41.5448C70.0638 41.5448 73.1079 44.5575 73.1079 48.2735C73.1079 51.9895 70.0638 55.0022 66.309 55.0022C62.5542 55.0022 59.5101 51.9895 59.5101 48.2735C59.5101 47.3562 59.6967 46.4829 60.0313 45.6858L60.0135 45.7297L50.8042 36.6624V60.5587C53.0666 61.687 54.5916 63.967 54.5916 66.5987C54.5916 70.3206 51.5415 73.3391 47.7808 73.3391C44.0201 73.3391 40.9701 70.3206 40.9701 66.5987C40.9701 64.7407 41.7282 63.0614 42.9571 61.8423C43.5819 61.2239 44.3251 60.7228 45.1513 60.3711L45.1957 60.3535V36.2228C42.7024 35.1853 40.9849 32.7852 40.9849 29.9923C40.9849 29.0545 41.1774 28.1636 41.5268 27.3518L41.509 27.3958L31.4736 17.417L4.88208 43.7164C3.85159 44.745 3.2179 46.1605 3.2179 47.7255C3.2179 49.2904 3.85455 50.7059 4.88505 51.7346L43.6648 90.1023C44.6982 91.128 46.1285 91.761 47.7098 91.761C49.291 91.761 50.7183 91.128 51.7548 90.1023L90.3509 51.9045C91.3873 50.8818 92.0299 49.4633 92.0299 47.9013C92.0299 46.3393 91.3873 44.9209 90.3509 43.8981L90.345 43.8952Z" fill="#8C20FF" fill-opacity="0.98"/>
</svg>
