<svg width="95" height="94" viewBox="0 0 95 94" fill="none" xmlns="http://www.w3.org/2000/svg">
<g clip-path="url(#clip0_11_69)">
<path d="M20.1118 0.0917358H24.3745V4.25981H28.2738V0.0917358H32.5368V12.7134H28.2742V8.48669H24.3749V12.7134H20.1122V0.0917358H20.1118ZM38.1422 4.2774H34.3898V0.0917358H46.1594V4.2774H42.4052V12.7134H38.1425V4.2774H38.1422ZM48.0272 0.0917358H52.4727L55.2064 4.52668L57.9379 0.0917358H62.3839V12.7134H58.1387V6.4576L55.2062 10.9451H55.1331L52.1986 6.4576V12.7134H48.0272V0.0917358ZM64.5058 0.0917358H68.7696V8.54163H74.7643V12.7134H64.5058V0.0917358ZM13.8782 18.486L19.9756 86.1711L47.3378 93.6881L74.7758 86.1602L80.8797 18.4858L13.8782 18.486ZM68.1609 34.5483L67.779 38.7569L67.6114 40.623H67.5838H47.379H47.3498H35.5132L36.2798 49.1231H47.3498H47.379H64.5873H66.8478L66.6431 51.3525L64.672 73.2076L64.5458 74.6092L47.379 79.3182V79.3196L47.3405 79.3304L30.1584 74.6096L28.983 61.5754H32.864H37.4033L38.0006 68.1961L47.342 70.693L47.3498 70.6906V70.6899L56.7055 68.1915L57.6784 57.425H47.379H47.3498H28.6084L26.5469 34.5483L26.3461 32.3216H47.3498H47.379H68.3617L68.1609 34.5483Z" fill="#8C20FF" fill-opacity="0.98"/>
</g>
<defs>
<clipPath id="clip0_11_69">
<rect width="94.7581" height="93.7799" fill="white"/>
</clipPath>
</defs>
</svg>
