<svg width="25" height="25" viewBox="0 0 25 25" fill="none" xmlns="http://www.w3.org/2000/svg">
<path fill-rule="evenodd" clip-rule="evenodd" d="M13.75 8.75C13.75 8.05965 13.1904 7.5 12.5 7.5C11.8096 7.5 11.25 8.05965 11.25 8.75V11.25H8.75C8.05965 11.25 7.5 11.8096 7.5 12.5C7.5 13.1904 8.05965 13.75 8.75 13.75H11.25V16.25C11.25 16.9404 11.8096 17.5 12.5 17.5C13.1904 17.5 13.75 16.9404 13.75 16.25V13.75H16.25C16.9404 13.75 17.5 13.1904 17.5 12.5C17.5 11.8096 16.9404 11.25 16.25 11.25H13.75V8.75ZM6.56259 0.484775C8.18598 0.124 10.1554 0 12.5 0C14.8446 0 16.814 0.124 18.4374 0.484775C20.075 0.848713 21.436 1.47 22.483 2.51697C23.53 3.56395 24.1512 4.92503 24.5152 6.56259C24.876 8.18598 25 10.1554 25 12.5C25 14.8446 24.876 16.814 24.5152 18.4374C24.1512 20.075 23.53 21.436 22.483 22.483C21.436 23.53 20.075 24.1512 18.4374 24.5152C16.814 24.876 14.8446 25 12.5 25C10.1554 25 8.18598 24.876 6.56259 24.5152C4.92503 24.1512 3.56395 23.53 2.51697 22.483C1.47 21.436 0.848713 20.075 0.484775 18.4374C0.124 16.814 0 14.8446 0 12.5C0 10.1554 0.124 8.18598 0.484775 6.56259C0.848713 4.92503 1.47 3.56395 2.51697 2.51697C3.56395 1.47 4.92503 0.848713 6.56259 0.484775Z" fill="white"/>
</svg>
