<svg width="95" height="94" viewBox="0 0 95 94" fill="none" xmlns="http://www.w3.org/2000/svg">
<path d="M0 10.4773C0 4.81238 4.6402 0.220093 10.3642 0.220093H84.3939C90.1179 0.220093 94.7581 4.81239 94.7581 10.4773V22.1998C94.7581 24.6275 92.7693 26.5957 90.3163 26.5957C87.8632 26.5957 85.8745 24.6275 85.8745 22.1998V10.4773C85.8745 9.66801 85.2118 9.01196 84.3939 9.01196H10.3642C9.54646 9.01196 8.88357 9.66801 8.88357 10.4773V83.7428C8.88357 84.5523 9.54646 85.2081 10.3642 85.2081H90.3163C92.7693 85.2081 94.7581 87.1763 94.7581 89.6041C94.7581 92.0318 92.7693 94 90.3163 94H10.3642C4.64019 94 0 89.4077 0 83.7428V10.4773ZM48.8596 33.9222C51.3127 33.9222 53.3014 35.8904 53.3014 38.3182V61.7632C53.3014 67.6525 51.6668 72.0696 48.2978 74.8478C45.0825 77.4994 41.1833 77.8816 38.4955 77.8816C36.0424 77.8816 34.0537 75.9134 34.0537 73.4856C34.0537 71.0579 36.0424 69.0897 38.4955 69.0897C40.5456 69.0897 41.8284 68.7392 42.6107 68.0939C43.2393 67.5752 44.4178 66.131 44.4178 61.7632V38.3182C44.4178 35.8904 46.4065 33.9222 48.8596 33.9222ZM66.779 38.7877C69.2587 35.8661 73.1455 33.9222 78.4715 33.9222C83.4161 33.9222 87.1466 35.5966 89.6613 38.2291C91.3462 39.9935 91.2668 42.7758 89.4842 44.4435C87.7015 46.1112 84.8902 46.0328 83.2053 44.2685C82.5544 43.5873 81.2574 42.7141 78.4715 42.7141C75.5062 42.7141 74.211 43.7009 73.5814 44.4425C72.8062 45.3555 72.5491 46.5005 72.5491 47.11C72.5491 47.7196 72.8062 48.8646 73.5814 49.7776C74.211 50.5192 75.5062 51.506 78.4715 51.506C78.9198 51.506 79.3528 51.5717 79.7602 51.694C83.6874 52.2472 86.6557 53.9824 88.6835 56.3715C91.0175 59.1215 91.7969 62.3727 91.7969 64.6938C91.7969 67.0148 91.0175 70.2661 88.6835 73.0162C86.2038 75.938 82.3169 77.8816 76.9909 77.8816C72.0463 77.8816 68.3158 76.207 65.8012 73.5747C64.1163 71.8105 64.1956 69.0282 65.9783 67.3601C67.7609 65.6925 70.5723 65.7711 72.2572 67.5353C72.908 68.2164 74.205 69.0897 76.9909 69.0897C79.9563 69.0897 81.2515 68.1027 81.881 67.3612C82.6563 66.4481 82.9133 65.3033 82.9133 64.6938C82.9133 64.0842 82.6563 62.9395 81.881 62.0263C81.2515 61.2849 79.9563 60.2978 76.9909 60.2978C76.5426 60.2978 76.1097 60.2322 75.7022 60.1097C71.7751 59.5564 68.8068 57.8214 66.779 55.4324C64.445 52.682 63.6656 49.4311 63.6656 47.11C63.6656 44.789 64.445 41.5381 66.779 38.7877Z" fill="#8C20FF" fill-opacity="0.98"/>
</svg>
