<svg width="50" height="50" viewBox="0 0 50 50" fill="none" xmlns="http://www.w3.org/2000/svg">
<path d="M25 0C14.6445 0 6.25 8.39453 6.25 18.75C6.25 23.1859 8.20469 27.0867 10.368 30.4688L23.725 49.3406C24.018 49.7547 24.4937 50 25 50C25.5063 50 25.982 49.7547 26.275 49.3406L39.632 30.4688C41.6992 27.6859 43.75 23.1859 43.75 18.75C43.75 8.39453 35.3555 0 25 0ZM25 29.6875C18.9594 29.6875 14.0625 24.7906 14.0625 18.75C14.0625 12.7094 18.9594 7.8125 25 7.8125C31.0406 7.8125 35.9375 12.7094 35.9375 18.75C35.9375 24.7906 31.0406 29.6875 25 29.6875Z" fill="#8C20FF"/>
<path d="M25 9.375C19.8227 9.375 15.625 13.5727 15.625 18.75C15.625 23.9273 19.8227 28.125 25 28.125C30.1773 28.125 34.375 23.9273 34.375 18.75C34.375 13.5727 30.1773 9.375 25 9.375ZM25 26.5625C20.6852 26.5625 17.1875 23.0641 17.1875 18.75C17.1875 14.4359 20.6852 10.9375 25 10.9375C29.3148 10.9375 32.8125 14.4359 32.8125 18.75C32.8125 23.0641 29.3148 26.5625 25 26.5625Z" fill="#8C20FF"/>
</svg>
