<svg width="60" height="60" viewBox="0 0 60 60" fill="none" xmlns="http://www.w3.org/2000/svg">
<path d="M53.0027 8.73438H6.99727C3.13219 8.73438 0 11.8666 0 15.7306V44.2689C0 48.133 3.13219 51.2652 6.99727 51.2652H53.0027C56.8668 51.2652 60 48.133 60 44.2689V15.7306C60 11.8666 56.8669 8.73438 53.0027 8.73438ZM56.659 46.154L55.327 47.7313L36.6746 32.5084L33.786 35.257C31.6452 37.2229 28.3549 37.2229 26.214 35.257L23.3254 32.5084L4.67297 47.7313L3.34102 46.154L20.8535 30.1559L3.22629 13.5898L4.26844 12.209L30 31.7061L55.7314 12.209L56.7728 13.5898L39.1466 30.1559L56.659 46.154Z" fill="#8C20FF"/>
</svg>
