<svg width="95" height="94" viewBox="0 0 95 94" fill="none" xmlns="http://www.w3.org/2000/svg">
<g clip-path="url(#clip0_11_85)">
<path d="M44.9294 0.708866C46.3124 -0.0895602 48.0226 -0.0895602 49.4056 0.708866L86.2091 21.9559C87.5736 22.7437 88.4128 24.1895 88.4128 25.753V68.247C88.4128 69.8108 87.5736 71.2562 86.2091 72.0439L49.4056 93.2909C48.0226 94.0898 46.3124 94.0898 44.9294 93.2909L35.7286 87.9795C33.6096 86.7562 32.8939 84.0642 34.1299 81.967C35.366 79.8704 38.0858 79.1618 40.2048 80.3851L47.1675 84.4047L79.5292 65.722V28.2779L47.1675 9.59518L14.8059 28.2779V65.722L21.42 69.5406C23.4584 70.1877 25.9762 70.3459 27.7508 69.5699C28.5741 69.21 29.3176 68.6239 29.9061 67.5771C30.5255 66.4752 31.0925 64.6412 31.0925 61.6531V30.8816C31.0925 28.4538 33.0812 26.4856 35.5343 26.4856C37.9874 26.4856 39.976 28.4538 39.976 30.8816V61.6531C39.976 65.6985 39.2123 69.1063 37.6691 71.8511C36.0952 74.651 33.8444 76.5172 31.3407 77.6121C26.5655 79.6999 21.2923 78.8441 18.0632 77.6959C17.8077 77.6051 17.5613 77.4914 17.3269 77.356L8.12608 72.0439C6.76145 71.2562 5.92236 69.8108 5.92236 68.247V25.753C5.92236 24.1895 6.76145 22.7437 8.12608 21.9559L44.9294 0.708866ZM48.8392 31.0763C51.1894 28.3074 54.8601 26.4856 59.8409 26.4856C64.4633 26.4856 67.9842 28.0539 70.3667 30.5483C72.0517 32.3127 71.9729 35.0949 70.1897 36.7626C68.407 38.4304 65.5957 38.352 63.9107 36.5876C63.3919 36.0446 62.3046 35.2775 59.8409 35.2775C57.2209 35.2775 56.1413 36.1422 55.6414 36.7312C54.9961 37.4915 54.782 38.4534 54.782 38.9408C54.782 39.4282 54.9961 40.39 55.6414 41.1504C56.1413 41.7394 57.2209 42.6041 59.8409 42.6041C60.2791 42.6041 60.7026 42.667 61.1029 42.7841C64.7719 43.3075 67.5678 44.9359 69.4849 47.1948C71.6898 49.7925 72.4259 52.8602 72.4259 55.0592C72.4259 57.2582 71.6898 60.3261 69.4849 62.9238C67.1349 65.6927 63.4642 67.5144 58.4835 67.5144C53.8611 67.5144 50.34 65.9459 47.9575 63.4519C46.2724 61.6871 46.3516 58.9048 48.1344 57.2374C49.9172 55.5696 52.7284 55.648 54.4136 57.4124C54.9322 57.9554 56.0198 58.7225 58.4835 58.7225C61.1035 58.7225 62.1832 57.8578 62.683 57.2688C63.328 56.5085 63.5424 55.5466 63.5424 55.0592C63.5424 54.5718 63.328 53.61 62.683 52.8496C62.1832 52.2606 61.1035 51.3959 58.4835 51.3959C58.045 51.3959 57.6214 51.333 57.2213 51.2159C53.5523 50.6925 50.7564 49.0641 48.8392 46.8052C46.6344 44.2075 45.8984 41.1398 45.8984 38.9408C45.8984 36.7418 46.6344 33.674 48.8392 31.0763Z" fill="#8C20FF" fill-opacity="0.98"/>
</g>
<defs>
<clipPath id="clip0_11_85">
<rect width="94.7581" height="93.7799" fill="white" transform="translate(0 0.110046)"/>
</clipPath>
</defs>
</svg>
