<svg width="96" height="94" viewBox="0 0 96 94" fill="none" xmlns="http://www.w3.org/2000/svg">
<path d="M43.0568 65.3121C44.6855 65.3854 46.3496 65.4381 48.0346 65.4381C49.7372 65.4381 51.4192 65.403 53.0686 65.3121C51.4192 67.4222 49.7905 69.289 48.0671 71.0678L48.0908 71.0444C46.3763 69.286 44.7299 67.4163 43.1782 65.4704L43.0568 65.3121ZM26.1839 62.9676C29.3909 63.7735 33.3026 64.4593 37.2943 64.8813L37.6822 64.9135C40.1252 68.2339 42.5949 71.1558 45.2451 73.9047L45.2125 73.8695C41.3304 78.157 36.0921 81.1697 30.1667 82.2511L30.0039 82.2746C29.992 82.2746 29.9802 82.2746 29.9683 82.2746C29.234 82.2746 28.5411 82.0958 27.934 81.7793L27.9577 81.791C25.494 80.3989 24.425 75.074 25.2571 68.231C25.4555 66.5459 25.7812 64.7729 26.181 62.9647L26.1839 62.9676ZM69.9592 62.9295C70.3086 64.3186 70.6373 66.0887 70.8713 67.8881L70.8979 68.1402C71.7478 74.9802 70.6995 80.2993 68.2565 81.7207C67.7117 82.0196 67.0602 82.1954 66.3673 82.1954C66.2992 82.1954 66.2311 82.1925 66.163 82.1896H66.1718C60.0925 81.0906 54.8571 78.0984 50.9839 73.8637L50.9632 73.8402C53.5661 71.1353 56.0179 68.2193 58.2655 65.1509L58.4372 64.9048C62.8079 64.4534 66.7256 63.7559 70.5426 62.8035L69.9592 62.9266V62.9295ZM29.6456 51.9924C30.3859 53.4284 31.1617 54.8586 32.0145 56.2946C32.8654 57.7228 33.735 59.1178 34.6233 60.4795C32.053 60.1073 29.5715 59.6384 27.1996 59.067C27.8659 56.7606 28.701 54.3721 29.6426 51.9866L29.6456 51.9924ZM66.4472 51.9192C67.4274 54.3252 68.2595 56.7254 68.9494 59.0523C66.5805 59.6267 64.0783 60.1132 61.4902 60.4795C62.3786 59.105 63.2669 57.6896 64.099 56.2389C64.9311 54.8117 65.7099 53.3522 66.4532 51.9162L66.4472 51.9192ZM23.2346 36.2433C24.5257 40.5747 25.9115 44.197 27.5254 47.6903L27.3033 47.1569C25.9234 50.1022 24.5583 53.7039 23.4389 57.4111L23.2849 58.0119C21.1943 57.376 19.5124 56.7518 17.8748 56.0513L18.2154 56.1803C11.8074 53.4812 7.6617 49.9322 7.6617 47.1188C7.6617 44.3054 11.8074 40.7388 18.2154 38.0515C19.77 37.3921 21.4757 36.7972 23.2346 36.2433ZM72.802 36.2286C74.5935 36.7766 76.2962 37.3891 77.8893 38.0515C84.2973 40.7623 88.443 44.3054 88.443 47.1188C88.4252 49.9322 84.2795 53.49 77.8715 56.1832C76.3169 56.8426 74.6142 57.4346 72.8582 57.9885C71.5553 53.6424 70.1695 50.0231 68.5615 46.5239L68.7866 47.0748C70.1606 44.1325 71.5286 40.5308 72.645 36.8235L72.802 36.2198V36.2286ZM61.4665 33.7581C64.0398 34.1362 66.5183 34.5992 68.8902 35.1765C68.224 37.4917 67.3919 39.8714 66.4472 42.2569C65.7069 40.8297 64.9311 39.3908 64.0783 37.9577C63.2462 36.5217 62.3578 35.1238 61.4695 33.761L61.4665 33.7581ZM34.6026 33.7581C33.7142 35.1384 32.8259 36.551 31.9968 38.0075C31.1647 39.4347 30.3859 40.8707 29.6456 42.3067C28.6654 39.9036 27.8333 37.5093 27.1434 35.1765C29.5123 34.6285 32.0086 34.1391 34.5996 33.764L34.6026 33.7581ZM48.0523 32.8262C50.7914 32.8262 53.5187 32.9492 56.2015 33.1661C57.7038 35.2977 59.1627 37.5679 60.5782 39.9769C61.9541 42.3214 63.2097 44.6971 64.3448 47.1042C63.2047 49.5043 61.9551 51.9016 60.5959 54.2461C59.1894 56.6638 57.7354 58.9644 56.2282 61.0949C53.5335 61.3265 50.8033 61.4525 48.0494 61.4525C45.3103 61.4525 42.583 61.3235 39.9002 61.1125C38.3988 58.982 36.9331 56.7019 35.5235 54.3018C34.1476 51.9573 32.892 49.5815 31.7569 47.1745C32.8792 44.7684 34.1466 42.3653 35.5058 40.0179C36.9123 37.6001 38.3663 35.3084 39.8735 33.1778C42.5682 32.9434 45.2984 32.8203 48.0523 32.8203V32.8262ZM47.9961 23.2108C49.7136 24.9692 51.36 26.836 52.9087 28.7819L53.0271 28.9372C51.3985 28.864 49.7343 28.8141 48.0494 28.8141C46.3467 28.8141 44.6647 28.8493 43.0153 28.9372C44.6618 26.8272 46.2904 24.9604 48.0168 23.1815L47.9931 23.2049L47.9961 23.2108ZM29.9298 12.0393C36.0092 13.1412 41.2416 16.1333 45.1178 20.3652L45.1385 20.3886C42.5356 23.0965 40.0838 26.0125 37.8362 29.0867L37.6645 29.3329C33.2967 29.7812 29.3791 30.4729 25.5651 31.4253L26.1454 31.3022C25.7309 29.5087 25.4229 27.7708 25.2068 26.1033C24.3569 19.2632 25.4052 13.9442 27.8481 12.5287C28.4581 12.2444 29.1718 12.0686 29.9239 12.0451H29.9328L29.9298 12.0393ZM66.086 11.966V11.9894C66.1245 11.9894 66.1689 11.9865 66.2163 11.9865C66.924 11.9865 67.5903 12.1594 68.1766 12.4642L68.1529 12.4525C70.6166 13.8504 71.6856 19.1724 70.8535 26.0183C70.6551 27.7034 70.3294 29.4794 69.9296 31.2905C66.7167 30.4758 62.805 29.7871 58.8133 29.368L58.4343 29.3358C55.9883 26.0125 53.5187 23.0906 50.8684 20.3388L50.904 20.374C54.7861 16.0952 60.0155 13.0826 65.929 11.9953L66.0949 11.9689L66.086 11.966ZM66.1037 7.97449C58.8725 9.06175 52.6126 12.5375 48.0405 17.5518L48.0168 17.5781C43.4121 12.5668 37.1522 9.1145 30.0986 8.06827L29.9328 8.04775C29.8943 8.04775 29.8469 8.04775 29.7996 8.04775C28.3456 8.04775 26.9805 8.4258 25.799 9.08813L25.8404 9.06761C20.7531 11.9719 19.6131 21.0216 22.2396 32.3778C10.9753 35.8213 3.64929 41.325 3.64929 47.1247C3.64929 52.9478 11.0138 58.4662 22.3107 61.8833C19.7049 73.2834 20.8686 82.3478 25.9678 85.2491C27.0871 85.8851 28.4315 86.2573 29.8617 86.2573C29.9269 86.2573 29.992 86.2573 30.0542 86.2543H30.0453C37.2766 85.1671 43.5365 81.6884 48.1086 76.6712L48.1323 76.6448C52.7369 81.6591 58.9969 85.1114 66.0504 86.1576L66.2163 86.1781C66.2607 86.1781 66.317 86.1781 66.3703 86.1781C67.8153 86.1781 69.1745 85.803 70.3501 85.1495L70.3086 85.17C75.393 82.2687 76.536 73.2189 73.9094 61.8598C85.1323 58.4457 92.4583 52.9302 92.4583 47.1217C92.4583 41.2986 85.0938 35.7802 73.7969 32.3543C76.4028 20.9659 75.239 11.8927 70.1398 8.98848C69.0087 8.34668 67.6524 7.96863 66.2074 7.96863C66.1689 7.96863 66.1304 7.96863 66.0919 7.96863H66.0978L66.1037 7.97449ZM56.3052 47.1247C56.3052 51.6466 52.6007 55.3128 48.0316 55.3128C43.4625 55.3128 39.758 51.6466 39.758 47.1247C39.758 42.6027 43.4625 38.9365 48.0316 38.9365C50.3176 38.9365 52.3846 39.8538 53.8829 41.3338C55.3813 42.8167 56.3052 44.8622 56.3052 47.1247Z" fill="#8C20FF" fill-opacity="0.98"/>
</svg>
