<svg width="50" height="50" viewBox="0 0 50 50" fill="none" xmlns="http://www.w3.org/2000/svg">
<path fill-rule="evenodd" clip-rule="evenodd" d="M25 41.6667C15.7952 41.6667 8.33333 34.2048 8.33333 25C8.33333 15.7952 15.7952 8.33333 25 8.33333C34.2048 8.33333 41.6667 15.7952 41.6667 25C41.6667 34.2048 34.2048 41.6667 25 41.6667ZM25 0C26.1506 0 27.0833 0.932739 27.0833 2.08333V4.16667C27.0833 5.31725 26.1506 6.25 25 6.25C23.8494 6.25 22.9167 5.31725 22.9167 4.16667V2.08333C22.9167 0.932739 23.8494 0 25 0ZM25 43.75C26.1506 43.75 27.0833 44.6827 27.0833 45.8333V47.9167C27.0833 49.0673 26.1506 50 25 50C23.8494 50 22.9167 49.0673 22.9167 47.9167V45.8333C22.9167 44.6827 23.8494 43.75 25 43.75ZM45.8333 22.9167H47.9167C49.0673 22.9167 50 23.8494 50 25C50 26.1506 49.0673 27.0833 47.9167 27.0833H45.8333C44.6827 27.0833 43.75 26.1506 43.75 25C43.75 23.8494 44.6827 22.9167 45.8333 22.9167ZM2.08333 22.9167H4.16667C5.31725 22.9167 6.25 23.8494 6.25 25C6.25 26.1506 5.31725 27.0833 4.16667 27.0833H2.08333C0.932739 27.0833 0 26.1506 0 25C0 23.8494 0.932739 22.9167 2.08333 22.9167ZM42.6777 7.32233C43.4912 8.13592 43.4912 9.45502 42.6777 10.2686L41.2046 11.7417C40.3908 12.5553 39.0719 12.5553 38.2583 11.7417C37.4446 10.9281 37.4446 9.60906 38.2583 8.79548L39.7315 7.32233C40.545 6.50873 41.8642 6.50873 42.6777 7.32233ZM11.7417 38.2583C12.5553 39.0719 12.5553 40.3908 11.7417 41.2046L10.2686 42.6777C9.45502 43.4912 8.13592 43.4912 7.32233 42.6777C6.50873 41.8642 6.50873 40.545 7.32233 39.7315L8.79548 38.2583C9.60906 37.4446 10.9281 37.4446 11.7417 38.2583ZM41.2046 38.2583L42.6777 39.7315C43.4912 40.545 43.4912 41.8642 42.6777 42.6777C41.8642 43.4912 40.545 43.4912 39.7315 42.6777L38.2583 41.2046C37.4446 40.3908 37.4446 39.0719 38.2583 38.2583C39.0719 37.4446 40.3908 37.4446 41.2046 38.2583ZM10.2686 7.32233L11.7417 8.79548C12.5553 9.60906 12.5553 10.9281 11.7417 11.7417C10.9281 12.5553 9.60906 12.5553 8.79548 11.7417L7.32233 10.2686C6.50873 9.45502 6.50873 8.13592 7.32233 7.32233C8.13592 6.50873 9.45502 6.50873 10.2686 7.32233Z" fill="#141414"/>
</svg>
