<svg width="96" height="94" viewBox="0 0 96 94" fill="none" xmlns="http://www.w3.org/2000/svg">
<g clip-path="url(#clip0_11_81)">
<path fill-rule="evenodd" clip-rule="evenodd" d="M47.7782 18.9761C35.1438 18.9761 27.2473 25.2281 24.0887 37.732C28.8266 31.48 34.3542 29.1356 40.6713 30.6985C44.2757 31.5903 46.8519 34.1781 49.7033 37.0427C54.3486 41.7091 59.7249 47.11 71.4677 47.11C84.1024 47.11 91.9984 40.858 95.1572 28.3541C90.4193 34.606 84.8916 36.9505 78.5746 35.3875C74.9704 34.4957 72.3943 31.9079 69.5428 29.0433C64.8976 24.3769 59.521 18.9761 47.7782 18.9761ZM24.0887 47.11C11.4543 47.11 3.55777 53.3619 0.39917 65.866C5.13707 59.6139 10.6646 57.2694 16.9818 58.8324C20.5862 59.7242 23.1624 62.312 26.0138 65.1764C30.6591 69.8429 36.0354 75.244 47.7782 75.244C60.4126 75.244 68.3089 68.992 71.4677 56.4879C66.7298 62.7399 61.2022 65.0845 54.8851 63.5215C51.2807 62.6296 48.7045 60.0419 45.8531 57.1772C41.2078 52.5108 35.8315 47.11 24.0887 47.11Z" stroke="#8C20FF" stroke-opacity="0.98" stroke-width="5" stroke-linejoin="round"/>
</g>
<defs>
<clipPath id="clip0_11_81">
<rect width="94.7581" height="93.7799" fill="white" transform="translate(0.39917 0.220093)"/>
</clipPath>
</defs>
</svg>
