<svg width="104" height="38" viewBox="0 0 104 38" fill="none" xmlns="http://www.w3.org/2000/svg">
<g clip-path="url(#clip0_13_157)">
<path d="M7.99212 3.73608V30.7601H20.9521L20.1361 37.0001H0.120117V3.73608H7.99212Z" fill="#D2D2D2"/>
<path d="M34.4067 10.696C38.3107 10.696 41.3667 11.896 43.5747 14.296C45.7827 16.664 46.8867 19.992 46.8867 24.28C46.8867 27 46.3747 29.384 45.3507 31.432C44.3587 33.448 42.9187 35.016 41.0307 36.136C39.1747 37.256 36.9667 37.816 34.4067 37.816C30.5347 37.816 27.4787 36.632 25.2387 34.264C23.0307 31.864 21.9267 28.52 21.9267 24.232C21.9267 21.512 22.4227 19.144 23.4147 17.128C24.4387 15.08 25.8787 13.496 27.7347 12.376C29.6227 11.256 31.8467 10.696 34.4067 10.696ZM34.4067 16.264C32.8707 16.264 31.7187 16.92 30.9507 18.232C30.1827 19.512 29.7987 21.512 29.7987 24.232C29.7987 27.016 30.1667 29.048 30.9027 30.328C31.6707 31.608 32.8387 32.248 34.4067 32.248C35.9427 32.248 37.0947 31.608 37.8627 30.328C38.6307 29.016 39.0147 27 39.0147 24.28C39.0147 21.496 38.6307 19.464 37.8627 18.184C37.1267 16.904 35.9747 16.264 34.4067 16.264Z" fill="#D2D2D2"/>
<path d="M65.846 10.6959C68.886 10.6959 71.222 11.8959 72.854 14.2959C74.486 16.6639 75.302 19.9919 75.302 24.2799C75.302 26.9039 74.886 29.2399 74.054 31.2879C73.254 33.3359 72.086 34.9359 70.55 36.0879C69.046 37.2399 67.254 37.8159 65.174 37.8159C63.798 37.8159 62.534 37.5279 61.382 36.9519C60.262 36.3759 59.302 35.5759 58.502 34.5519L58.118 36.9999H51.398V1.38387L58.982 0.567871V14.1039C59.75 13.0479 60.726 12.2159 61.91 11.6079C63.126 10.9999 64.438 10.6959 65.846 10.6959ZM62.966 32.2959C65.942 32.2959 67.43 29.6239 67.43 24.2799C67.43 21.2399 67.078 19.1439 66.374 17.9919C65.67 16.8399 64.646 16.2639 63.302 16.2639C61.606 16.2639 60.166 17.2559 58.982 19.2399V29.8479C59.462 30.6159 60.038 31.2239 60.71 31.6719C61.414 32.0879 62.166 32.2959 62.966 32.2959Z" fill="#D2D2D2"/>
<path d="M91.0786 10.696C94.9826 10.696 98.0386 11.896 100.247 14.296C102.455 16.664 103.559 19.992 103.559 24.28C103.559 27 103.047 29.384 102.023 31.432C101.031 33.448 99.5906 35.016 97.7026 36.136C95.8466 37.256 93.6386 37.816 91.0786 37.816C87.2066 37.816 84.1506 36.632 81.9106 34.264C79.7026 31.864 78.5986 28.52 78.5986 24.232C78.5986 21.512 79.0946 19.144 80.0866 17.128C81.1106 15.08 82.5506 13.496 84.4066 12.376C86.2946 11.256 88.5186 10.696 91.0786 10.696ZM91.0786 16.264C89.5426 16.264 88.3906 16.92 87.6226 18.232C86.8546 19.512 86.4706 21.512 86.4706 24.232C86.4706 27.016 86.8386 29.048 87.5746 30.328C88.3426 31.608 89.5106 32.248 91.0786 32.248C92.6146 32.248 93.7666 31.608 94.5346 30.328C95.3026 29.016 95.6866 27 95.6866 24.28C95.6866 21.496 95.3026 19.464 94.5346 18.184C93.7986 16.904 92.6466 16.264 91.0786 16.264Z" fill="#D2D2D2"/>
</g>
<defs>
<clipPath id="clip0_13_157">
<rect width="104" height="38" fill="white"/>
</clipPath>
</defs>
</svg>
