<svg width="302" height="50" viewBox="0 0 302 50" fill="none" xmlns="http://www.w3.org/2000/svg">
<path d="M23.6419 47.528C23.5139 47.528 23.4179 47.512 23.3539 47.48C23.2899 47.448 23.2259 47.416 23.1619 47.384C23.5139 47.128 23.6899 46.776 23.6899 46.328C23.6899 45.944 23.5619 45.544 23.3059 45.128C23.0819 44.744 22.8419 44.44 22.5859 44.216C22.2979 43.96 21.9779 43.672 21.6259 43.352C21.3059 43.032 21.0179 42.568 20.7619 41.96C20.5699 41.576 20.4739 41.16 20.4739 40.712C20.4739 40.264 20.5699 39.832 20.7619 39.416C20.9539 39.032 21.2259 38.728 21.5779 38.504C21.3539 38.28 21.0339 38.088 20.6179 37.928C20.2339 37.768 19.8179 37.688 19.3699 37.688H18.9379C18.4899 37.688 18.0739 37.736 17.6899 37.832C17.1459 38.024 16.5859 38.184 16.0099 38.312C15.4659 38.44 14.9219 38.536 14.3779 38.6C14.3459 39.176 14.3779 39.912 14.4739 40.808C14.6019 41.736 14.8579 42.568 15.2419 43.304C15.6259 44.04 16.2019 44.44 16.9699 44.504V44.936C16.2659 44.968 15.6739 44.696 15.1939 44.12C14.7139 43.576 14.3459 42.936 14.0899 42.2C13.9939 42.616 13.8179 43.016 13.5619 43.4C13.3379 43.784 13.0179 44.072 12.6019 44.264C12.5699 44.68 12.3459 45.064 11.9299 45.416C11.5139 45.8 10.9699 45.992 10.2979 45.992C9.88188 45.992 9.41788 45.896 8.90588 45.704C8.39388 45.512 7.94588 45.256 7.56188 44.936C7.17788 44.616 6.93788 44.28 6.84188 43.928V43.784C6.84188 43.496 6.90588 43.32 7.03388 43.256C7.09788 43.48 7.20988 43.624 7.36988 43.688C7.56188 43.784 7.75388 43.832 7.94588 43.832C8.36188 43.832 8.71388 43.72 9.00188 43.496C9.22588 43.368 9.48188 43.224 9.76988 43.064C10.0579 42.904 10.4419 42.824 10.9219 42.824C11.2739 42.824 11.6099 42.92 11.9299 43.112C12.2499 43.304 12.4579 43.576 12.5539 43.928C13.0019 43.704 13.3219 43.256 13.5139 42.584C13.7059 41.944 13.7859 41.416 13.7539 41C13.6579 40.552 13.5939 40.12 13.5619 39.704C13.5299 39.32 13.5139 38.984 13.5139 38.696C11.7859 38.76 10.2019 38.488 8.76188 37.88C7.32188 37.272 6.16988 36.312 5.30588 35C4.44188 33.72 4.00988 32.12 4.00988 30.2C4.00988 29.24 4.12188 28.216 4.34588 27.128C4.60188 26.008 5.00188 24.824 5.54588 23.576C6.28188 21.88 7.27388 20.216 8.52188 18.584C9.80188 16.952 11.1299 15.448 12.5059 14.072C11.8659 13.816 11.2099 13.544 10.5379 13.256C9.89788 12.936 9.27388 12.616 8.66588 12.296C8.08988 12.104 7.51388 11.976 6.93788 11.912C6.07388 11.912 5.41788 12.088 4.96988 12.44C5.22588 12.632 5.41788 12.888 5.54588 13.208C5.67388 13.496 5.73788 13.816 5.73788 14.168C5.73788 14.712 5.62588 15.16 5.40188 15.512C5.11388 16.024 4.79388 16.408 4.44188 16.664C4.12188 16.888 3.83388 17.096 3.57788 17.288C3.32188 17.448 3.06588 17.72 2.80988 18.104C2.58588 18.456 2.47388 18.808 2.47388 19.16C2.47388 19.448 2.58588 19.704 2.80988 19.928C2.74588 19.992 2.63388 20.024 2.47388 20.024C2.31388 20.024 2.12188 19.96 1.89788 19.832C1.48188 19.576 1.17788 19.144 0.985875 18.536C0.793875 17.896 0.697875 17.24 0.697875 16.568C0.697875 15.608 0.857875 14.776 1.17788 14.072C1.46588 13.432 1.86588 12.952 2.37788 12.632C2.92188 12.28 3.43388 12.104 3.91388 12.104C4.04188 12.104 4.15388 12.12 4.24988 12.152C4.34588 12.152 4.44188 12.168 4.53788 12.2C5.17788 11.624 5.92988 11.336 6.79388 11.336H6.93788C6.10588 10.76 5.46588 10.248 5.01788 9.8C4.28188 9 3.73788 8.216 3.38588 7.448C3.06588 6.648 2.90588 5.896 2.90588 5.192C2.90588 3.88 3.41788 2.792 4.44188 1.928C5.46588 1.064 6.80988 0.631999 8.47388 0.631999C9.52988 0.631999 10.6819 0.839999 11.9299 1.256C13.2099 1.64 14.5379 2.296 15.9139 3.224C16.0099 3.224 16.1699 3.336 16.3939 3.56C16.5539 3.688 16.7779 3.752 17.0659 3.752C17.4179 3.752 17.7539 3.64 18.0739 3.416C18.4259 3.192 18.7139 2.968 18.9379 2.744C19.4179 2.296 20.0099 1.896 20.7139 1.544C21.4179 1.16 22.0579 0.967998 22.6339 0.967998C23.4659 0.967998 24.1059 1.208 24.5539 1.688C25.0019 2.136 25.2579 2.648 25.3219 3.224C25.1299 2.936 24.7779 2.792 24.2659 2.792C23.7539 2.792 23.2739 2.968 22.8259 3.32C22.3779 3.64 21.9779 3.96 21.6259 4.28C21.2099 4.6 20.7779 4.904 20.3299 5.192C19.9139 5.448 19.3699 5.576 18.6979 5.576C18.5699 5.576 18.4419 5.576 18.3139 5.576C18.2179 5.576 18.0899 5.56 17.9299 5.528C17.6099 5.464 17.2739 5.32 16.9219 5.096C16.6019 4.84 16.3299 4.552 16.1059 4.232C15.9459 4.072 15.7699 3.896 15.5779 3.704C15.3859 3.512 15.2579 3.4 15.1939 3.368C14.9699 3.208 14.7299 3.064 14.4739 2.936C14.2499 2.808 14.0259 2.696 13.8019 2.6C13.8979 2.696 13.9619 2.776 13.9939 2.84C14.6019 3.512 14.9059 4.264 14.9059 5.096C14.9059 5.64 14.7619 6.104 14.4739 6.488C14.1859 6.84 13.8339 7.016 13.4179 7.016C13.1299 7.016 12.8259 6.904 12.5059 6.68C12.2819 6.52 12.1699 6.36 12.1699 6.2C12.1699 6.04 12.2819 5.992 12.5059 6.056C12.7619 6.12 13.0179 6.008 13.2739 5.72C13.5299 5.432 13.7059 5.096 13.8019 4.712C13.8339 4.584 13.8499 4.456 13.8499 4.328C13.8819 4.168 13.8979 4.024 13.8979 3.896C13.8979 3.64 13.8659 3.384 13.8019 3.128C13.7379 2.872 13.6259 2.632 13.4659 2.408C11.8019 1.64 10.2979 1.256 8.95388 1.256C7.57788 1.256 6.47388 1.608 5.64188 2.312C4.84188 3.016 4.44188 3.928 4.44188 5.048C4.44188 5.72 4.60188 6.424 4.92188 7.16C5.24188 7.896 5.75388 8.648 6.45788 9.416C7.12988 10.12 8.02588 10.824 9.14588 11.528C10.2659 12.232 11.5779 12.904 13.0819 13.544C15.6099 11.176 18.4579 9.272 21.6259 7.832C24.7939 6.36 28.0419 5.624 31.3699 5.624C33.8659 5.624 35.7219 6.056 36.9379 6.92C38.1859 7.784 38.8099 8.808 38.8099 9.992C38.8099 11.016 38.3299 12.056 37.3699 13.112C36.4419 14.168 35.0179 15.048 33.0979 15.752C32.0099 16.168 30.8419 16.472 29.5939 16.664C28.3779 16.824 27.1299 16.904 25.8499 16.904C23.4499 16.904 21.0659 16.632 18.6979 16.088C18.4099 16.12 18.1539 16.2 17.9299 16.328C17.7059 16.424 17.5299 16.552 17.4019 16.712C17.0499 17 16.8739 17.368 16.8739 17.816C16.8739 18.008 16.9379 18.168 17.0659 18.296C17.2259 18.424 17.2899 18.52 17.2579 18.584C17.2259 18.648 17.1459 18.68 17.0179 18.68C16.7939 18.68 16.5219 18.584 16.2019 18.392C15.9139 18.168 15.7699 17.848 15.7699 17.432C15.7699 17.016 15.9459 16.664 16.2979 16.376C16.6499 16.088 17.0659 15.896 17.5459 15.8C17.1299 15.704 16.7139 15.592 16.2979 15.464C15.8819 15.336 15.4979 15.208 15.1459 15.08C14.2179 16.072 13.3219 17.176 12.4579 18.392C11.5939 19.576 10.8099 20.824 10.1059 22.136C10.1059 22.168 10.0899 22.2 10.0579 22.232C10.0579 22.232 10.0579 22.264 10.0579 22.328C9.92988 22.68 9.81788 23.064 9.72188 23.48C9.65788 23.864 9.62588 24.248 9.62588 24.632C9.62588 25.304 9.73788 25.928 9.96188 26.504C10.2179 27.08 10.5379 27.464 10.9219 27.656L11.1139 27.752C11.3059 27.464 11.5619 27.256 11.8819 27.128C12.2339 26.968 12.5859 26.888 12.9379 26.888C13.3539 26.888 13.6899 26.952 13.9459 27.08C14.3939 27.24 14.7459 27.432 15.0019 27.656C15.2579 27.88 15.4979 28.12 15.7219 28.376C16.0419 27.64 16.3779 26.936 16.7299 26.264C17.1139 25.56 17.5299 24.92 17.9779 24.344C19.0019 23.032 20.0579 22.088 21.1459 21.512C22.2659 20.904 23.3059 20.6 24.2659 20.6C25.5779 20.6 26.6499 21.048 27.4819 21.944C28.3459 22.84 28.7779 23.992 28.7779 25.4C28.7779 26.136 28.6339 26.952 28.3459 27.848C28.0579 28.712 27.5939 29.608 26.9539 30.536C26.0579 31.816 24.9699 33.032 23.6899 34.184C22.4419 35.304 21.0819 36.232 19.6099 36.968L19.6579 37.016C20.6499 37.112 21.4659 37.528 22.1059 38.264C22.1699 38.232 22.2499 38.216 22.3459 38.216C22.4419 38.216 22.5219 38.216 22.5859 38.216C23.1939 38.216 23.8019 38.44 24.4099 38.888C25.0179 39.368 25.4659 40.024 25.7539 40.856C25.9459 41.368 26.0419 42.024 26.0419 42.824C26.0419 43.72 25.8819 44.616 25.5619 45.512C25.2739 46.408 24.8419 47.016 24.2659 47.336C24.0099 47.464 23.8019 47.528 23.6419 47.528ZM24.4099 15.896C27.4499 15.896 30.1699 15.48 32.5699 14.648C34.1699 14.104 35.4019 13.384 36.2659 12.488C37.1299 11.56 37.5619 10.664 37.5619 9.8C37.5619 8.968 37.0979 8.232 36.1699 7.592C35.2739 6.92 33.8499 6.584 31.8979 6.584C30.6499 6.584 29.2579 6.84 27.7219 7.352C26.2179 7.832 24.6979 8.472 23.1619 9.272C21.6259 10.072 20.2019 10.936 18.8899 11.864C17.5779 12.76 16.5059 13.624 15.6739 14.456C16.9219 14.936 18.2979 15.304 19.8019 15.56C21.3059 15.784 22.8419 15.896 24.4099 15.896ZM14.4739 37.592C15.9779 37.336 17.4499 36.792 18.8899 35.96C20.3619 35.16 21.7059 34.184 22.9219 33.032C24.1699 31.88 25.1939 30.68 25.9939 29.432C26.5059 28.664 26.8739 27.928 27.0979 27.224C27.3219 26.488 27.4339 25.816 27.4339 25.208C27.4339 24.088 27.1139 23.176 26.4739 22.472C25.8659 21.768 25.0499 21.416 24.0259 21.416C23.2259 21.416 22.3459 21.688 21.3859 22.232C20.4259 22.776 19.4819 23.672 18.5539 24.92C17.6259 26.2 16.8739 27.528 16.2979 28.904C16.7139 29.224 17.1619 29.384 17.6419 29.384C18.0579 29.384 18.3619 29.24 18.5539 28.952C18.6499 29.048 18.6979 29.176 18.6979 29.336C18.6979 29.944 18.3459 30.424 17.6419 30.776C16.9699 31.096 16.2339 31.32 15.4339 31.448C15.1459 32.44 14.9219 33.464 14.7619 34.52C14.6339 35.544 14.5379 36.568 14.4739 37.592ZM13.6099 37.688C13.6419 36.792 13.7379 35.816 13.8979 34.76C14.0579 33.672 14.2979 32.584 14.6179 31.496C14.0099 31.496 13.5139 31.432 13.1299 31.304C12.3299 31.048 11.7219 30.616 11.3059 30.008C10.8899 29.4 10.7459 28.84 10.8739 28.328C10.8739 28.264 10.9059 28.168 10.9699 28.04H10.9219C10.6019 28.04 10.2499 27.768 9.86588 27.224C9.48188 26.68 9.24188 26.12 9.14588 25.544C9.11388 25.416 9.09788 25.208 9.09788 24.92C9.09788 24.76 9.09788 24.6 9.09788 24.44C9.09788 24.28 9.11388 24.136 9.14588 24.008C9.01788 24.264 8.88988 24.536 8.76188 24.824C8.66588 25.08 8.56988 25.336 8.47388 25.592C7.99388 26.744 7.64188 27.832 7.41788 28.856C7.22588 29.848 7.12988 30.76 7.12988 31.592C7.12988 33.704 7.73788 35.272 8.95388 36.296C10.1699 37.352 11.7219 37.816 13.6099 37.688ZM37.9665 35.48C36.2065 35.48 35.3265 34.6 35.3265 32.84C35.3265 32.2 35.5665 31.432 36.0465 30.536C36.5585 29.64 37.1665 28.728 37.8705 27.8C38.5745 26.84 39.2465 25.976 39.8865 25.208C40.5265 24.44 41.0065 23.88 41.3265 23.528C42.2865 22.376 42.7665 21.56 42.7665 21.08C42.7665 20.728 42.5585 20.552 42.1425 20.552C41.8225 20.552 41.5185 20.616 41.2305 20.744C40.0465 21.16 38.8465 21.928 37.6305 23.048C36.4145 24.168 35.2465 25.464 34.1265 26.936C33.0385 28.376 32.0625 29.816 31.1985 31.256C30.3345 32.696 29.6465 33.944 29.1345 35C29.1025 35.096 28.9265 35.16 28.6065 35.192C28.3185 35.256 27.9985 35.288 27.6465 35.288C27.3265 35.288 27.0385 35.256 26.7825 35.192C26.5585 35.16 26.4465 35.096 26.4465 35C26.4465 35 26.7345 34.472 27.3105 33.416C27.8865 32.36 28.6705 30.968 29.6625 29.24C30.6545 27.48 31.7745 25.544 33.0225 23.432C34.3025 21.32 35.6305 19.208 37.0065 17.096C38.1265 15.368 39.2785 13.64 40.4625 11.912C41.6465 10.184 42.9425 8.568 44.3505 7.064C45.7905 5.528 47.4225 4.248 49.2465 3.224C49.9505 2.808 50.5745 2.536 51.1185 2.408C51.6945 2.248 52.1905 2.168 52.6065 2.168C53.0225 2.168 53.3905 2.216 53.7105 2.312C54.4465 2.504 54.8145 3.064 54.8145 3.992C54.8145 4.696 54.6225 5.544 54.2385 6.536C53.8545 7.496 53.3585 8.456 52.7505 9.416C52.1425 10.344 51.5185 11.176 50.8785 11.912C49.1505 13.8 47.4545 15.272 45.7905 16.328C44.1265 17.352 42.6225 18.088 41.2785 18.536C39.9665 18.952 38.9585 19.24 38.2545 19.4C37.9985 19.752 37.6305 20.296 37.1505 21.032C36.6705 21.736 36.1425 22.504 35.5665 23.336C35.2465 23.784 35.0865 24.056 35.0865 24.152C35.0865 24.184 35.1505 24.168 35.2785 24.104C35.4065 24.008 35.5505 23.88 35.7105 23.72C36.5425 22.888 37.4065 22.12 38.3025 21.416C39.2305 20.712 40.1585 20.184 41.0865 19.832C41.7585 19.576 42.4305 19.448 43.1025 19.448C43.7425 19.448 44.3025 19.576 44.7825 19.832C45.2945 20.056 45.5505 20.44 45.5505 20.984C45.5505 21.464 45.3105 22.04 44.8305 22.712C44.4145 23.256 43.8225 24.04 43.0545 25.064C42.3185 26.088 41.5505 27.176 40.7505 28.328C39.9825 29.48 39.3265 30.568 38.7825 31.592C38.2385 32.584 37.9665 33.336 37.9665 33.848C37.9665 34.328 38.1905 34.568 38.6385 34.568C39.2785 34.568 39.9825 34.312 40.7505 33.8C41.5505 33.256 42.3505 32.6 43.1505 31.832C43.9505 31.032 44.6705 30.216 45.3105 29.384C45.9825 28.552 46.5105 27.832 46.8945 27.224C47.0225 27.16 47.1345 27.128 47.2305 27.128C47.5505 27.128 47.6305 27.304 47.4705 27.656C46.5105 29.16 45.4705 30.504 44.3505 31.688C43.2305 32.872 42.1105 33.8 40.9905 34.472C39.9025 35.144 38.8945 35.48 37.9665 35.48ZM38.8785 18.488C39.4865 18.36 40.3345 18.056 41.4225 17.576C42.5425 17.096 43.7905 16.376 45.1665 15.416C46.5745 14.456 47.9985 13.176 49.4385 11.576C50.0145 10.936 50.6705 10.136 51.4065 9.176C52.1745 8.216 52.7505 7.336 53.1345 6.536C53.3905 5.96 53.5665 5.48 53.6625 5.096C53.7905 4.68 53.8545 4.344 53.8545 4.088C53.8545 3.512 53.5985 3.224 53.0865 3.224C52.5745 3.224 51.9345 3.464 51.1665 3.944C50.3985 4.392 49.7105 4.888 49.1025 5.432C48.1105 6.328 47.0705 7.432 45.9825 8.744C44.8945 10.024 43.8545 11.336 42.8625 12.68C41.9025 14.024 41.0545 15.224 40.3185 16.28C39.6145 17.336 39.1345 18.072 38.8785 18.488ZM51.2606 35.48C50.6206 35.48 50.0446 35.288 49.5326 34.904C49.0526 34.52 48.8126 33.976 48.8126 33.272C48.8126 32.472 49.0206 31.608 49.4366 30.68C49.8846 29.752 50.3646 28.92 50.8766 28.184C51.3886 27.416 51.7246 26.92 51.8846 26.696C52.4606 25.928 52.9886 25.144 53.4686 24.344C53.9806 23.512 54.2366 22.84 54.2366 22.328C54.2366 21.848 54.0286 21.544 53.6126 21.416C53.2606 21.288 52.8926 21.16 52.5086 21.032C52.1246 20.872 51.8366 20.776 51.6446 20.744C51.5486 20.904 51.3246 21.288 50.9726 21.896C50.6206 22.472 50.2046 23.144 49.7246 23.912C49.2766 24.648 48.8446 25.368 48.4286 26.072C48.0126 26.776 47.6926 27.304 47.4686 27.656C47.2766 27.88 47.1166 27.992 46.9886 27.992C46.8606 27.992 46.7646 27.928 46.7006 27.8C46.6686 27.672 46.7006 27.528 46.7966 27.368C47.7566 25.864 48.6046 24.456 49.3406 23.144C50.0766 21.832 50.5566 21 50.7806 20.648C50.4606 20.424 50.2046 20.04 50.0126 19.496C49.8206 18.952 49.7246 18.392 49.7246 17.816C49.7246 17.176 49.8526 16.6 50.1086 16.088C50.3646 15.576 50.7966 15.32 51.4046 15.32C51.8206 15.32 52.1086 15.528 52.2686 15.944C52.4286 16.328 52.5086 16.776 52.5086 17.288C52.5086 17.736 52.4606 18.168 52.3646 18.584C52.2686 19 52.1886 19.288 52.1246 19.448L51.7886 20.216C52.1726 20.248 52.7486 20.312 53.5166 20.408C54.2846 20.504 55.0846 20.616 55.9166 20.744C56.3966 20.808 56.7806 20.984 57.0686 21.272C57.3886 21.56 57.5486 21.944 57.5486 22.424C57.5486 22.904 57.3886 23.48 57.0686 24.152C56.7486 24.824 56.2046 25.592 55.4366 26.456C55.0526 26.904 54.5886 27.496 54.0446 28.232C53.5006 28.968 52.9886 29.688 52.5086 30.392C52.0286 31.064 51.6766 31.592 51.4526 31.976C51.0366 32.648 50.8286 33.256 50.8286 33.8C50.8286 34.408 51.1646 34.712 51.8366 34.712C52.5726 34.712 53.3566 34.44 54.1886 33.896C55.0206 33.32 55.8366 32.616 56.6366 31.784C57.4366 30.952 58.1406 30.136 58.7486 29.336C59.3886 28.504 59.8526 27.848 60.1406 27.368C60.2686 27.144 60.4446 27.032 60.6686 27.032C60.8286 27.032 60.9086 27.112 60.9086 27.272C60.9086 27.432 60.8766 27.56 60.8126 27.656C60.4926 28.136 59.9646 28.856 59.2286 29.816C58.5246 30.776 57.6766 31.752 56.6846 32.744C55.6926 33.704 54.5886 34.456 53.3726 35C52.9886 35.16 52.6046 35.272 52.2206 35.336C51.8366 35.432 51.5166 35.48 51.2606 35.48ZM69.276 17.528C68.828 17.528 68.476 17.384 68.22 17.096C67.996 16.808 67.884 16.472 67.884 16.088C67.884 15.448 68.108 14.936 68.556 14.552C69.004 14.168 69.484 13.976 69.996 13.976C70.444 13.976 70.796 14.12 71.052 14.408C71.308 14.664 71.436 15 71.436 15.416C71.436 16.024 71.212 16.536 70.764 16.952C70.316 17.336 69.82 17.528 69.276 17.528ZM61.308 35.576C60.444 35.576 59.708 35.32 59.1 34.808C58.524 34.264 58.236 33.496 58.236 32.504C58.236 31.992 58.332 31.4 58.524 30.728C58.748 30.024 59.004 29.384 59.292 28.808C59.612 28.2 59.884 27.704 60.108 27.32C60.364 26.936 60.492 26.744 60.492 26.744L65.196 19.784C65.388 19.624 65.628 19.528 65.916 19.496C66.204 19.432 66.508 19.4 66.828 19.4C67.276 19.4 67.66 19.448 67.98 19.544C68.3 19.608 68.428 19.72 68.364 19.88L63.612 26.936C63.516 27.064 63.196 27.512 62.652 28.28C62.14 29.016 61.644 29.832 61.164 30.728C60.556 31.848 60.252 32.808 60.252 33.608C60.252 34.472 60.652 34.904 61.452 34.904C61.708 34.904 62.012 34.856 62.364 34.76C62.748 34.632 63.18 34.44 63.66 34.184C65.676 33.064 67.74 30.792 69.852 27.368C69.948 27.208 70.028 27.128 70.092 27.128C70.188 27.096 70.252 27.08 70.284 27.08C70.444 27.08 70.54 27.144 70.572 27.272C70.636 27.368 70.62 27.496 70.524 27.656C69.372 29.416 68.236 30.936 67.116 32.216C66.028 33.496 64.876 34.424 63.66 35C62.86 35.384 62.076 35.576 61.308 35.576ZM83.4431 27.08C83.5391 27.08 83.6191 27.128 83.6831 27.224C83.7471 27.32 83.7471 27.464 83.6831 27.656C82.1791 30.056 80.4671 31.768 78.5471 32.792C76.6271 33.784 74.7231 34.456 72.8351 34.808C72.0671 35 71.2671 35.096 70.4351 35.096C69.3471 35.096 68.3231 34.888 67.3631 34.472C66.4031 34.056 65.7151 33.368 65.2991 32.408C65.1071 31.928 65.0111 31.448 65.0111 30.968C65.0111 30.264 65.1871 29.656 65.5391 29.144C65.9231 28.6 66.3231 28.216 66.7391 27.992C66.9951 27.832 67.2671 27.736 67.5551 27.704C67.8751 27.64 68.1951 27.608 68.5151 27.608C68.9311 27.608 69.2991 27.656 69.6191 27.752C69.7151 27.592 70.0031 27.128 70.4831 26.36C70.9631 25.56 71.5551 24.632 72.2591 23.576C72.9631 22.488 73.6991 21.464 74.4671 20.504C75.2991 19.48 76.0991 18.632 76.8671 17.96C77.6351 17.288 78.1951 16.92 78.5471 16.856C78.6431 16.824 78.7391 16.808 78.8351 16.808C78.9311 16.808 79.0111 16.808 79.0751 16.808C79.4271 16.808 79.6831 16.888 79.8431 17.048C80.0351 17.208 80.1311 17.4 80.1311 17.624C80.1311 17.848 80.0031 18.072 79.7471 18.296C79.5231 18.52 79.1871 18.632 78.7391 18.632C78.2271 18.632 77.7151 18.776 77.2031 19.064C76.6911 19.32 76.3871 19.624 76.2911 19.976C76.1951 20.264 76.1471 20.584 76.1471 20.936C76.1471 21.512 76.2431 22.088 76.4351 22.664C76.6591 23.24 76.8671 23.816 77.0591 24.392C77.2511 24.968 77.4271 25.56 77.5871 26.168C77.7791 26.776 77.8751 27.432 77.8751 28.136C77.8751 28.776 77.7791 29.432 77.5871 30.104C77.2351 31.448 76.5791 32.536 75.6191 33.368C76.7711 32.984 78.0031 32.344 79.3151 31.448C80.6271 30.552 81.8591 29.192 83.0111 27.368C83.1071 27.208 83.1871 27.128 83.2511 27.128C83.3471 27.096 83.4111 27.08 83.4431 27.08ZM69.8591 34.472C70.2751 34.472 70.7071 34.408 71.1551 34.28C71.6031 34.152 72.0351 33.944 72.4511 33.656C73.0271 33.304 73.5071 32.744 73.8911 31.976C74.2751 31.208 74.5791 30.376 74.8031 29.48C75.0591 28.552 75.2351 27.672 75.3311 26.84C75.4591 26.008 75.5231 25.352 75.5231 24.872C75.5231 24.2 75.4591 23.528 75.3311 22.856C75.2351 22.184 75.2031 21.528 75.2351 20.888C74.5311 21.848 73.7311 22.92 72.8351 24.104C71.9711 25.288 71.1231 26.6 70.2911 28.04C70.6751 28.264 70.9951 28.536 71.2511 28.856C71.5391 29.144 71.7311 29.608 71.8271 30.248C71.8591 30.504 71.7791 30.792 71.5871 31.112C71.4271 31.4 71.1071 31.544 70.6271 31.544C70.3071 31.544 70.1471 31.448 70.1471 31.256C70.1471 31.096 70.2431 30.952 70.4351 30.824C70.7551 30.568 70.9151 30.28 70.9151 29.96C70.9151 29.768 70.8671 29.576 70.7711 29.384C70.5471 28.968 70.2271 28.664 69.8111 28.472C69.4271 28.28 69.0111 28.184 68.5631 28.184C67.9231 28.184 67.3791 28.376 66.9311 28.76C66.5471 29.08 66.2751 29.432 66.1151 29.816C65.9551 30.168 65.8751 30.536 65.8751 30.92C65.8751 31.528 66.0351 32.104 66.3551 32.648C66.6751 33.16 67.0591 33.544 67.5071 33.8C68.2111 34.248 68.9951 34.472 69.8591 34.472ZM84.807 35.336C83.879 35.336 83.047 35.08 82.311 34.568C81.607 34.024 81.255 33.24 81.255 32.216C81.255 31.672 81.287 31.192 81.351 30.776C81.415 30.328 81.559 29.864 81.783 29.384C82.039 28.872 82.407 28.232 82.887 27.464C83.399 26.696 84.087 25.72 84.951 24.536L88.455 19.592H85.863L86.247 18.872H88.983L92.823 13.352C93.527 12.84 94.375 12.584 95.367 12.584C95.847 12.584 96.327 12.664 96.807 12.824L92.247 18.824H95.655L95.271 19.544H91.719L87.735 25.112C87.543 25.368 87.223 25.816 86.775 26.456C86.327 27.064 85.847 27.768 85.335 28.568C84.855 29.368 84.439 30.168 84.087 30.968C83.735 31.736 83.559 32.44 83.559 33.08C83.559 34.136 84.071 34.664 85.095 34.664C85.639 34.664 86.247 34.504 86.919 34.184C88.391 33.544 89.639 32.632 90.663 31.448C91.719 30.232 92.727 28.872 93.687 27.368C93.783 27.24 93.927 27.176 94.119 27.176C94.215 27.176 94.295 27.224 94.359 27.32C94.423 27.416 94.423 27.528 94.359 27.656C93.783 28.552 93.143 29.48 92.439 30.44C91.735 31.4 90.935 32.28 90.039 33.08C89.175 33.88 88.199 34.488 87.111 34.904C86.407 35.192 85.639 35.336 84.807 35.336ZM102.792 17.528C102.344 17.528 101.992 17.384 101.736 17.096C101.512 16.808 101.4 16.472 101.4 16.088C101.4 15.448 101.624 14.936 102.072 14.552C102.52 14.168 103 13.976 103.512 13.976C103.96 13.976 104.312 14.12 104.568 14.408C104.824 14.664 104.952 15 104.952 15.416C104.952 16.024 104.728 16.536 104.28 16.952C103.832 17.336 103.336 17.528 102.792 17.528ZM94.8236 35.576C93.9596 35.576 93.2236 35.32 92.6156 34.808C92.0396 34.264 91.7516 33.496 91.7516 32.504C91.7516 31.992 91.8476 31.4 92.0396 30.728C92.2636 30.024 92.5196 29.384 92.8076 28.808C93.1276 28.2 93.3996 27.704 93.6236 27.32C93.8796 26.936 94.0076 26.744 94.0076 26.744L98.7116 19.784C98.9036 19.624 99.1436 19.528 99.4316 19.496C99.7196 19.432 100.024 19.4 100.344 19.4C100.792 19.4 101.176 19.448 101.496 19.544C101.816 19.608 101.944 19.72 101.88 19.88L97.1276 26.936C97.0316 27.064 96.7116 27.512 96.1676 28.28C95.6556 29.016 95.1596 29.832 94.6796 30.728C94.0716 31.848 93.7676 32.808 93.7676 33.608C93.7676 34.472 94.1676 34.904 94.9676 34.904C95.2236 34.904 95.5276 34.856 95.8796 34.76C96.2636 34.632 96.6956 34.44 97.1756 34.184C99.1916 33.064 101.256 30.792 103.368 27.368C103.464 27.208 103.544 27.128 103.608 27.128C103.704 27.096 103.768 27.08 103.8 27.08C103.96 27.08 104.056 27.144 104.088 27.272C104.152 27.368 104.136 27.496 104.04 27.656C102.888 29.416 101.752 30.936 100.632 32.216C99.5436 33.496 98.3916 34.424 97.1756 35C96.3756 35.384 95.5916 35.576 94.8236 35.576ZM104.959 35.288C104.063 35.288 103.375 34.952 102.895 34.28C102.415 33.576 102.175 32.68 102.175 31.592C102.175 30.408 102.495 29.032 103.135 27.464C103.487 26.6 104.015 25.72 104.719 24.824C105.423 23.896 106.239 23.048 107.167 22.28C108.095 21.48 109.087 20.84 110.143 20.36C111.231 19.848 112.335 19.592 113.455 19.592C114.319 19.592 114.911 19.816 115.231 20.264C115.551 20.712 115.711 21.256 115.711 21.896C115.711 22.504 115.615 23.128 115.423 23.768L118.111 19.688C118.335 19.528 118.831 19.448 119.599 19.448C120.175 19.448 120.719 19.512 121.231 19.64C121.775 19.768 121.935 19.96 121.711 20.216C121.455 20.536 121.007 21.032 120.367 21.704C119.759 22.344 119.087 23.112 118.351 24.008C117.647 24.904 116.975 25.848 116.335 26.84C116.015 27.384 115.535 28.184 114.895 29.24C114.287 30.296 113.807 31.304 113.455 32.264C113.263 32.84 113.167 33.304 113.167 33.656C113.167 34.328 113.455 34.664 114.031 34.664C114.351 34.664 114.783 34.552 115.327 34.328C115.871 34.072 116.399 33.736 116.911 33.32C117.935 32.488 118.831 31.496 119.599 30.344C120.367 29.16 121.055 28.12 121.663 27.224C121.695 27.192 121.727 27.16 121.759 27.128C121.823 27.096 121.919 27.08 122.047 27.08C122.175 27.08 122.271 27.144 122.335 27.272C122.399 27.368 122.367 27.496 122.239 27.656C121.343 29 120.463 30.264 119.599 31.448C118.735 32.6 117.855 33.528 116.959 34.232C116.063 34.936 115.087 35.288 114.031 35.288C113.199 35.288 112.527 35.048 112.015 34.568C111.535 34.056 111.295 33.368 111.295 32.504C111.295 32.12 111.327 31.72 111.391 31.304C111.487 30.888 111.599 30.504 111.727 30.152C111.215 30.824 110.575 31.56 109.807 32.36C109.071 33.16 108.287 33.848 107.455 34.424C106.623 35 105.791 35.288 104.959 35.288ZM105.391 34.376C106.031 34.376 106.703 34.12 107.407 33.608C108.143 33.096 108.879 32.44 109.615 31.64C110.351 30.808 111.023 29.928 111.631 29C112.143 28.232 112.639 27.416 113.119 26.552C113.631 25.688 114.047 24.84 114.367 24.008C114.719 23.176 114.895 22.424 114.895 21.752C114.895 20.728 114.527 20.216 113.791 20.216C113.279 20.216 112.687 20.44 112.015 20.888C111.343 21.336 110.655 21.912 109.951 22.616C109.279 23.32 108.639 24.088 108.031 24.92C107.455 25.72 106.991 26.504 106.639 27.272C106.543 27.464 106.303 27.928 105.919 28.664C105.567 29.4 105.215 30.2 104.863 31.064C104.543 31.928 104.383 32.68 104.383 33.32C104.383 34.024 104.719 34.376 105.391 34.376ZM133.13 35.672C132.362 35.672 131.706 35.432 131.162 34.952C130.618 34.44 130.346 33.72 130.346 32.792C130.346 31.672 130.666 30.52 131.306 29.336C131.946 28.12 132.698 26.92 133.562 25.736C134.426 24.552 135.178 23.464 135.818 22.472C136.17 21.864 136.346 21.368 136.346 20.984C136.346 20.536 136.138 20.312 135.722 20.312C135.402 20.312 134.922 20.52 134.282 20.936C133.642 21.32 132.826 21.992 131.834 22.952C130.874 23.912 129.946 24.984 129.05 26.168C128.186 27.32 127.386 28.472 126.65 29.624C125.946 30.776 125.322 31.832 124.778 32.792C124.266 33.752 123.882 34.488 123.626 35C123.402 35.096 123.114 35.16 122.762 35.192C122.442 35.224 122.106 35.24 121.754 35.24C120.954 35.24 120.426 35.192 120.17 35.096C120.586 34.52 121.13 33.72 121.802 32.696C122.506 31.672 123.242 30.568 124.01 29.384C124.778 28.168 125.482 27.032 126.122 25.976C126.474 25.368 126.858 24.712 127.274 24.008C127.69 23.304 128.042 22.648 128.33 22.04C128.618 21.4 128.762 20.92 128.762 20.6C128.762 20.28 128.634 20.12 128.378 20.12C128.218 20.12 128.01 20.2 127.754 20.36C127.498 20.52 127.258 20.728 127.034 20.984C126.554 21.464 125.93 22.216 125.162 23.24C124.426 24.232 123.45 25.704 122.234 27.656C122.138 27.816 121.978 27.896 121.754 27.896C121.498 27.896 121.434 27.72 121.562 27.368C122.138 26.44 122.73 25.512 123.338 24.584C123.946 23.624 124.554 22.728 125.162 21.896C125.802 21.064 126.394 20.408 126.938 19.928C127.514 19.416 128.122 19.16 128.762 19.16C129.37 19.16 129.834 19.368 130.154 19.784C130.474 20.2 130.634 20.68 130.634 21.224C130.634 21.864 130.49 22.568 130.202 23.336C130.33 23.208 130.442 23.08 130.538 22.952C130.666 22.824 130.794 22.696 130.922 22.568C132.042 21.384 133.13 20.52 134.186 19.976C135.274 19.4 136.218 19.112 137.018 19.112C137.626 19.112 138.138 19.272 138.554 19.592C139.002 19.912 139.226 20.344 139.226 20.888C139.226 21.528 139.002 22.296 138.554 23.192C138.106 24.088 137.594 24.936 137.018 25.736C136.474 26.536 136.026 27.16 135.674 27.608C135.45 27.928 135.018 28.52 134.378 29.384C133.738 30.216 133.194 31.08 132.746 31.976C132.522 32.36 132.362 32.712 132.266 33.032C132.202 33.32 132.17 33.592 132.17 33.848C132.17 34.584 132.506 34.952 133.178 34.952C133.914 34.952 134.826 34.52 135.914 33.656C136.778 32.984 137.658 32.12 138.554 31.064C139.482 29.976 140.362 28.744 141.194 27.368C141.29 27.208 141.386 27.128 141.482 27.128C141.578 27.096 141.642 27.08 141.674 27.08C141.898 27.08 141.962 27.272 141.866 27.656C140.938 29.128 139.962 30.488 138.938 31.736C137.946 32.984 136.938 33.976 135.914 34.712C134.986 35.352 134.058 35.672 133.13 35.672ZM155.062 35.432C154.23 35.432 153.446 35.24 152.71 34.856C151.974 34.44 151.43 33.784 151.078 32.888C150.854 32.312 150.742 31.656 150.742 30.92C150.742 30.024 150.918 29.144 151.27 28.28C151.718 27.224 152.374 26.184 153.238 25.16C154.102 24.136 155.062 23.208 156.118 22.376C157.174 21.544 158.23 20.888 159.286 20.408C160.342 19.896 161.286 19.64 162.118 19.64C162.822 19.64 163.382 19.832 163.798 20.216C164.086 20.504 164.23 20.92 164.23 21.464C164.23 22.168 163.958 22.984 163.414 23.912C162.902 24.808 162.166 25.592 161.206 26.264C160.598 26.68 159.878 27.032 159.046 27.32C158.246 27.576 157.398 27.704 156.502 27.704C156.214 27.704 155.91 27.688 155.59 27.656C155.302 27.624 155.014 27.576 154.726 27.512C154.502 27.768 154.23 28.184 153.91 28.76C153.622 29.304 153.366 29.912 153.142 30.584C152.95 31.256 152.854 31.896 152.854 32.504C152.886 33.336 153.11 33.928 153.526 34.28C153.974 34.6 154.502 34.76 155.11 34.76C156.326 34.76 157.494 34.376 158.614 33.608C159.766 32.808 160.806 31.832 161.734 30.68C162.662 29.528 163.446 28.424 164.086 27.368C164.182 27.24 164.262 27.176 164.326 27.176C164.39 27.144 164.438 27.128 164.47 27.128C164.566 27.128 164.646 27.176 164.71 27.272C164.806 27.368 164.822 27.496 164.758 27.656C164.342 28.328 163.798 29.128 163.126 30.056C162.486 30.984 161.718 31.88 160.822 32.744C159.958 33.576 158.982 34.264 157.894 34.808C157.478 35.032 157.014 35.192 156.502 35.288C156.022 35.384 155.542 35.432 155.062 35.432ZM156.07 27.032C157.574 27.032 158.934 26.648 160.15 25.88C161.398 25.08 162.294 24.12 162.838 23C162.998 22.744 163.094 22.504 163.126 22.28C163.19 22.056 163.222 21.88 163.222 21.752C163.222 21.208 162.918 20.936 162.31 20.936C161.926 20.936 161.494 21.032 161.014 21.224C160.566 21.416 160.166 21.64 159.814 21.896C159.206 22.344 158.566 22.904 157.894 23.576C157.254 24.216 156.678 24.856 156.166 25.496C155.654 26.104 155.27 26.584 155.014 26.936C155.174 26.968 155.35 27 155.542 27.032C155.734 27.032 155.91 27.032 156.07 27.032ZM188.593 46.568C188.017 46.568 187.537 46.376 187.153 45.992C184.881 46.056 183.153 45.544 181.969 44.456C180.817 43.368 180.113 41.976 179.857 40.28C179.729 40.568 179.553 40.84 179.329 41.096C179.137 41.352 178.881 41.576 178.561 41.768C178.625 42.12 178.513 42.44 178.225 42.728C177.937 43.048 177.553 43.208 177.073 43.208C176.817 43.208 176.545 43.16 176.257 43.064C176.001 42.968 175.649 42.728 175.201 42.344C174.753 41.96 174.481 41.528 174.385 41.048C174.513 41.112 174.673 41.208 174.865 41.336C175.089 41.496 175.329 41.576 175.585 41.576H175.681C175.841 41.576 176.017 41.528 176.209 41.432C176.401 41.336 176.561 41.224 176.689 41.096C176.785 41.032 176.897 40.968 177.025 40.904C177.185 40.84 177.329 40.808 177.457 40.808C177.649 40.808 177.857 40.888 178.081 41.048C178.209 41.112 178.337 41.24 178.465 41.432C179.041 41.016 179.473 40.376 179.761 39.512C179.729 39.096 179.713 38.664 179.713 38.216C179.745 37.8 179.793 37.368 179.857 36.92C176.913 36.696 174.785 35.896 173.473 34.52C172.161 33.144 171.505 31.544 171.505 29.72C171.505 27.512 172.049 25.608 173.137 24.008C174.225 22.376 175.633 21.032 177.361 19.976C179.121 18.888 181.009 18.056 183.025 17.48C185.073 16.872 187.041 16.472 188.929 16.28C188.833 16.024 188.737 15.768 188.641 15.512C188.577 15.224 188.529 14.952 188.497 14.696C186.833 14.696 185.249 14.584 183.745 14.36C182.241 14.136 180.977 13.784 179.953 13.304C179.761 13.24 179.553 13.192 179.329 13.16C179.137 13.128 178.929 13.112 178.705 13.112C178.097 13.112 177.585 13.288 177.169 13.64C177.649 13.928 177.889 14.392 177.889 15.032C177.889 15.224 177.841 15.448 177.745 15.704C177.617 16.056 177.441 16.328 177.217 16.52C177.025 16.712 176.849 16.888 176.689 17.048C176.561 17.176 176.433 17.352 176.305 17.576C176.177 17.8 176.113 18.024 176.113 18.248C176.113 18.504 176.225 18.728 176.449 18.92C176.385 18.984 176.289 19.016 176.161 19.016C175.681 19.016 175.297 18.696 175.009 18.056C174.753 17.416 174.625 16.76 174.625 16.088C174.625 15.224 174.881 14.552 175.393 14.072C175.937 13.592 176.433 13.416 176.881 13.544C177.265 13.096 177.729 12.824 178.273 12.728C178.369 12.696 178.465 12.68 178.561 12.68C178.657 12.68 178.753 12.68 178.849 12.68C177.441 11.752 176.417 10.792 175.777 9.8C175.137 8.776 174.817 7.816 174.817 6.92C174.817 5.736 175.265 4.76 176.161 3.992C177.057 3.192 178.193 2.792 179.569 2.792C180.081 2.792 180.625 2.856 181.201 2.984C181.777 3.112 182.369 3.32 182.977 3.608C183.233 3.736 183.473 3.88 183.697 4.04C183.921 4.168 184.129 4.312 184.321 4.472C184.705 4.536 185.185 4.472 185.761 4.28C186.337 4.088 186.625 3.8 186.625 3.416V3.32C186.625 3.096 186.689 2.968 186.817 2.936C186.977 2.872 187.105 2.904 187.201 3.032C187.425 3.256 187.537 3.528 187.537 3.848C187.537 4.328 187.233 4.728 186.625 5.048C186.433 5.144 186.193 5.192 185.905 5.192C185.553 5.192 185.249 5.144 184.993 5.048C185.537 5.592 186.017 6.248 186.433 7.016C187.009 7.016 187.393 7.24 187.585 7.688C187.809 8.136 187.921 8.68 187.921 9.32C187.921 9.896 187.729 10.552 187.345 11.288C186.961 11.992 186.529 12.392 186.049 12.488C186.017 12.488 185.969 12.504 185.905 12.536C185.873 12.536 185.841 12.536 185.809 12.536C185.617 12.536 185.489 12.472 185.425 12.344C185.777 12.216 185.953 11.944 185.953 11.528C185.953 11.208 185.857 10.888 185.665 10.568C185.537 10.344 185.393 10.104 185.233 9.848C185.105 9.56 185.041 9.192 185.041 8.744C185.041 8.296 185.169 7.928 185.425 7.64C185.681 7.352 185.921 7.176 186.145 7.112C185.793 6.472 185.281 5.88 184.609 5.336C183.969 4.76 183.313 4.312 182.641 3.992C182.225 3.8 181.809 3.672 181.393 3.608C181.009 3.512 180.641 3.464 180.289 3.464C179.169 3.464 178.241 3.816 177.505 4.52C176.769 5.224 176.401 6.088 176.401 7.112C176.401 7.912 176.657 8.744 177.169 9.608C177.713 10.472 178.577 11.288 179.761 12.056C180.881 12.76 182.193 13.304 183.697 13.688C185.201 14.04 186.785 14.232 188.449 14.264C188.385 13.528 188.449 12.872 188.641 12.296C189.089 10.568 189.889 9.176 191.041 8.12C192.193 7.032 193.489 6.232 194.929 5.72C196.369 5.208 197.745 4.952 199.057 4.952C200.465 4.952 201.633 5.208 202.561 5.72C203.489 6.232 203.953 6.952 203.953 7.88C203.953 8.584 203.697 9.304 203.185 10.04C202.705 10.776 201.985 11.416 201.025 11.96C199.649 12.76 197.969 13.384 195.985 13.832C194.001 14.28 191.985 14.552 189.937 14.648C189.937 15.128 190.017 15.64 190.177 16.184H190.225C190.609 16.184 191.121 16.216 191.761 16.28C192.433 16.344 193.073 16.472 193.681 16.664C194.289 16.824 194.721 17.08 194.977 17.432C195.105 17.624 195.169 17.784 195.169 17.912C195.169 18.2 194.993 18.472 194.641 18.728C194.321 18.952 193.841 19.064 193.201 19.064C192.753 19.064 192.321 19 191.905 18.872C191.361 18.712 190.881 18.472 190.465 18.152C190.049 17.832 189.681 17.464 189.361 17.048C187.665 17.176 185.953 17.56 184.225 18.2C182.497 18.84 180.913 19.72 179.473 20.84C178.065 21.928 176.913 23.24 176.017 24.776C175.153 26.312 174.721 28.024 174.721 29.912C174.721 31.384 175.137 32.712 175.969 33.896C176.833 35.048 178.161 35.8 179.953 36.152C180.113 35.288 180.337 34.408 180.625 33.512C180.913 32.616 181.265 31.736 181.681 30.872C181.649 30.904 181.601 30.936 181.537 30.968C181.505 31 181.473 31.048 181.441 31.112C181.025 31.432 180.449 31.592 179.713 31.592C179.169 31.592 178.785 31.448 178.561 31.16C178.337 30.84 178.225 30.52 178.225 30.2C178.225 29.784 178.321 29.464 178.513 29.24C178.609 29.144 178.689 29.096 178.753 29.096C178.849 29.096 178.897 29.272 178.897 29.624C178.897 29.944 179.153 30.216 179.665 30.44C180.177 30.632 180.657 30.728 181.105 30.728C181.329 30.728 181.489 30.712 181.585 30.68C181.649 30.648 181.697 30.632 181.729 30.632C181.761 30.632 181.793 30.616 181.825 30.584C182.849 28.536 184.161 26.68 185.761 25.016C187.361 23.352 189.137 22.168 191.089 21.464C192.113 21.08 193.105 20.888 194.065 20.888C195.665 20.888 197.025 21.336 198.145 22.232C199.265 23.096 199.825 24.28 199.825 25.784C199.825 26.488 199.649 27.272 199.297 28.136C198.945 29 198.401 29.896 197.665 30.824C196.481 32.296 194.977 33.496 193.153 34.424C191.361 35.32 189.457 35.976 187.441 36.392C185.425 36.808 183.489 37.016 181.633 37.016H180.961C180.865 37.688 180.817 38.36 180.817 39.032C180.817 40.888 181.297 42.456 182.257 43.736C183.217 45.048 184.785 45.688 186.961 45.656C186.833 45.432 186.769 45.16 186.769 44.84C186.769 44.296 186.961 43.768 187.345 43.256C187.761 42.776 188.353 42.504 189.121 42.44C190.401 42.344 191.313 41.992 191.857 41.384C192.401 40.808 192.737 40.36 192.865 40.04C192.961 40.2 193.025 40.376 193.057 40.568C193.089 40.792 193.105 41 193.105 41.192C193.105 41.8 192.977 42.392 192.721 42.968C192.497 43.576 192.289 44.024 192.097 44.312C191.585 45.112 191.009 45.688 190.369 46.04C189.729 46.392 189.137 46.568 188.593 46.568ZM189.937 14.216C192.113 14.12 194.193 13.752 196.177 13.112C198.193 12.44 199.841 11.544 201.121 10.424C202.273 9.4 202.849 8.456 202.849 7.592C202.817 6.952 202.481 6.472 201.841 6.152C201.233 5.832 200.465 5.672 199.537 5.672C198.449 5.672 197.265 5.912 195.985 6.392C194.705 6.872 193.537 7.624 192.481 8.648C191.425 9.64 190.673 10.92 190.225 12.488C190.097 13.064 190.001 13.64 189.937 14.216ZM193.393 18.392C193.841 18.392 194.065 18.28 194.065 18.056C194.065 17.832 193.793 17.608 193.249 17.384C192.705 17.128 191.825 17 190.609 17C191.057 17.608 191.729 18.04 192.625 18.296C192.785 18.328 192.913 18.36 193.009 18.392C193.137 18.392 193.265 18.392 193.393 18.392ZM181.057 36.296C181.633 36.36 182.241 36.36 182.881 36.296C185.089 36.136 186.993 35.752 188.593 35.144C190.225 34.568 191.601 33.832 192.721 32.936C193.873 32.04 194.849 31.096 195.649 30.104C196.449 29.112 197.025 28.184 197.377 27.32C197.761 26.456 197.953 25.672 197.953 24.968C197.953 23.912 197.601 23.08 196.897 22.472C196.193 21.864 195.265 21.56 194.113 21.56C193.697 21.56 193.249 21.608 192.769 21.704C192.289 21.768 191.793 21.896 191.281 22.088C189.617 22.696 188.065 23.768 186.625 25.304C185.217 26.808 184.017 28.536 183.025 30.488C182.065 32.44 181.409 34.376 181.057 36.296ZM214.881 27.08C214.977 27.08 215.057 27.128 215.121 27.224C215.185 27.32 215.185 27.464 215.121 27.656C213.617 30.056 211.905 31.768 209.985 32.792C208.065 33.784 206.161 34.456 204.273 34.808C203.505 35 202.705 35.096 201.873 35.096C200.785 35.096 199.761 34.888 198.801 34.472C197.841 34.056 197.153 33.368 196.737 32.408C196.545 31.928 196.449 31.448 196.449 30.968C196.449 30.264 196.625 29.656 196.977 29.144C197.361 28.6 197.761 28.216 198.177 27.992C198.433 27.832 198.705 27.736 198.993 27.704C199.313 27.64 199.633 27.608 199.953 27.608C200.369 27.608 200.737 27.656 201.057 27.752C201.153 27.592 201.441 27.128 201.921 26.36C202.401 25.56 202.993 24.632 203.697 23.576C204.401 22.488 205.137 21.464 205.905 20.504C206.737 19.48 207.537 18.632 208.305 17.96C209.073 17.288 209.633 16.92 209.985 16.856C210.081 16.824 210.177 16.808 210.273 16.808C210.369 16.808 210.449 16.808 210.513 16.808C210.865 16.808 211.121 16.888 211.281 17.048C211.473 17.208 211.569 17.4 211.569 17.624C211.569 17.848 211.441 18.072 211.185 18.296C210.961 18.52 210.625 18.632 210.177 18.632C209.665 18.632 209.153 18.776 208.641 19.064C208.129 19.32 207.825 19.624 207.729 19.976C207.633 20.264 207.585 20.584 207.585 20.936C207.585 21.512 207.681 22.088 207.873 22.664C208.097 23.24 208.305 23.816 208.497 24.392C208.689 24.968 208.865 25.56 209.025 26.168C209.217 26.776 209.313 27.432 209.313 28.136C209.313 28.776 209.217 29.432 209.025 30.104C208.673 31.448 208.017 32.536 207.057 33.368C208.209 32.984 209.441 32.344 210.753 31.448C212.065 30.552 213.297 29.192 214.449 27.368C214.545 27.208 214.625 27.128 214.689 27.128C214.785 27.096 214.849 27.08 214.881 27.08ZM201.297 34.472C201.713 34.472 202.145 34.408 202.593 34.28C203.041 34.152 203.473 33.944 203.889 33.656C204.465 33.304 204.945 32.744 205.329 31.976C205.713 31.208 206.017 30.376 206.241 29.48C206.497 28.552 206.673 27.672 206.769 26.84C206.897 26.008 206.961 25.352 206.961 24.872C206.961 24.2 206.897 23.528 206.769 22.856C206.673 22.184 206.641 21.528 206.673 20.888C205.969 21.848 205.169 22.92 204.273 24.104C203.409 25.288 202.561 26.6 201.729 28.04C202.113 28.264 202.433 28.536 202.689 28.856C202.977 29.144 203.169 29.608 203.265 30.248C203.297 30.504 203.217 30.792 203.025 31.112C202.865 31.4 202.545 31.544 202.065 31.544C201.745 31.544 201.585 31.448 201.585 31.256C201.585 31.096 201.681 30.952 201.873 30.824C202.193 30.568 202.353 30.28 202.353 29.96C202.353 29.768 202.305 29.576 202.209 29.384C201.985 28.968 201.665 28.664 201.249 28.472C200.865 28.28 200.449 28.184 200.001 28.184C199.361 28.184 198.817 28.376 198.369 28.76C197.985 29.08 197.713 29.432 197.553 29.816C197.393 30.168 197.313 30.536 197.313 30.92C197.313 31.528 197.473 32.104 197.793 32.648C198.113 33.16 198.497 33.544 198.945 33.8C199.649 34.248 200.433 34.472 201.297 34.472ZM216.245 35.336C215.317 35.336 214.485 35.08 213.749 34.568C213.045 34.024 212.693 33.24 212.693 32.216C212.693 31.672 212.725 31.192 212.789 30.776C212.853 30.328 212.997 29.864 213.221 29.384C213.477 28.872 213.845 28.232 214.325 27.464C214.837 26.696 215.525 25.72 216.389 24.536L219.893 19.592H217.301L217.685 18.872H220.421L224.261 13.352C224.965 12.84 225.813 12.584 226.805 12.584C227.285 12.584 227.765 12.664 228.245 12.824L223.685 18.824H227.093L226.709 19.544H223.157L219.173 25.112C218.981 25.368 218.661 25.816 218.213 26.456C217.765 27.064 217.285 27.768 216.773 28.568C216.293 29.368 215.877 30.168 215.525 30.968C215.173 31.736 214.997 32.44 214.997 33.08C214.997 34.136 215.509 34.664 216.533 34.664C217.077 34.664 217.685 34.504 218.357 34.184C219.829 33.544 221.077 32.632 222.101 31.448C223.157 30.232 224.165 28.872 225.125 27.368C225.221 27.24 225.365 27.176 225.557 27.176C225.653 27.176 225.733 27.224 225.797 27.32C225.861 27.416 225.861 27.528 225.797 27.656C225.221 28.552 224.581 29.48 223.877 30.44C223.173 31.4 222.373 32.28 221.477 33.08C220.613 33.88 219.637 34.488 218.549 34.904C217.845 35.192 217.077 35.336 216.245 35.336ZM228.421 35.432C227.589 35.432 226.805 35.24 226.069 34.856C225.333 34.44 224.789 33.784 224.437 32.888C224.213 32.312 224.101 31.656 224.101 30.92C224.101 30.024 224.277 29.144 224.629 28.28C225.077 27.224 225.733 26.184 226.597 25.16C227.461 24.136 228.421 23.208 229.477 22.376C230.533 21.544 231.589 20.888 232.645 20.408C233.701 19.896 234.645 19.64 235.477 19.64C236.181 19.64 236.741 19.832 237.157 20.216C237.445 20.504 237.589 20.92 237.589 21.464C237.589 22.168 237.317 22.984 236.773 23.912C236.261 24.808 235.525 25.592 234.565 26.264C233.957 26.68 233.237 27.032 232.405 27.32C231.605 27.576 230.757 27.704 229.861 27.704C229.573 27.704 229.269 27.688 228.949 27.656C228.661 27.624 228.373 27.576 228.085 27.512C227.861 27.768 227.589 28.184 227.269 28.76C226.981 29.304 226.725 29.912 226.501 30.584C226.309 31.256 226.213 31.896 226.213 32.504C226.245 33.336 226.469 33.928 226.885 34.28C227.333 34.6 227.861 34.76 228.469 34.76C229.685 34.76 230.853 34.376 231.973 33.608C233.125 32.808 234.165 31.832 235.093 30.68C236.021 29.528 236.805 28.424 237.445 27.368C237.541 27.24 237.621 27.176 237.685 27.176C237.749 27.144 237.797 27.128 237.829 27.128C237.925 27.128 238.005 27.176 238.069 27.272C238.165 27.368 238.181 27.496 238.117 27.656C237.701 28.328 237.157 29.128 236.485 30.056C235.845 30.984 235.077 31.88 234.181 32.744C233.317 33.576 232.341 34.264 231.253 34.808C230.837 35.032 230.373 35.192 229.861 35.288C229.381 35.384 228.901 35.432 228.421 35.432ZM229.429 27.032C230.933 27.032 232.293 26.648 233.509 25.88C234.757 25.08 235.653 24.12 236.197 23C236.357 22.744 236.453 22.504 236.485 22.28C236.549 22.056 236.581 21.88 236.581 21.752C236.581 21.208 236.277 20.936 235.669 20.936C235.285 20.936 234.853 21.032 234.373 21.224C233.925 21.416 233.525 21.64 233.173 21.896C232.565 22.344 231.925 22.904 231.253 23.576C230.613 24.216 230.037 24.856 229.525 25.496C229.013 26.104 228.629 26.584 228.373 26.936C228.533 26.968 228.709 27 228.901 27.032C229.093 27.032 229.269 27.032 229.429 27.032ZM234.085 16.712C233.765 16.712 233.605 16.664 233.605 16.568C233.605 16.504 233.781 16.344 234.133 16.088C234.517 15.8 234.933 15.496 235.381 15.176C235.829 14.856 236.165 14.616 236.389 14.456C236.933 14.04 237.461 13.656 237.973 13.304C238.517 12.952 238.885 12.776 239.077 12.776C239.269 12.776 239.461 12.856 239.653 13.016C239.877 13.176 239.989 13.368 239.989 13.592C239.989 13.752 239.717 14.008 239.173 14.36C238.661 14.68 238.037 15.032 237.301 15.416C236.565 15.768 235.893 16.072 235.285 16.328C234.677 16.584 234.277 16.712 234.085 16.712ZM236.909 49.688C236.781 49.688 236.621 49.672 236.429 49.64C236.269 49.64 236.109 49.624 235.949 49.592C235.053 49.432 234.397 48.888 233.981 47.96C233.565 47.032 233.357 45.896 233.357 44.552C233.357 43.528 233.485 42.376 233.741 41.096C233.965 40.168 234.269 39.112 234.653 37.928C235.037 36.744 235.485 35.528 235.997 34.28C236.509 33.032 237.005 31.864 237.485 30.776C237.101 30.232 236.909 29.592 236.909 28.856C236.909 28.28 237.021 27.768 237.245 27.32C237.469 26.872 237.789 26.648 238.205 26.648C238.557 26.648 238.909 26.824 239.261 27.176C240.221 25.288 241.261 23.288 242.381 21.176C243.533 19.064 244.765 16.968 246.077 14.888C247.389 12.776 248.797 10.792 250.301 8.936C251.837 7.048 253.469 5.4 255.197 3.992C255.933 3.416 256.669 2.952 257.405 2.6C258.173 2.248 258.893 2.072 259.565 2.072C260.109 2.072 260.589 2.184 261.005 2.408C261.261 2.536 261.469 2.744 261.629 3.032C261.789 3.288 261.869 3.64 261.869 4.088C261.869 4.792 261.565 5.768 260.957 7.016C260.349 8.232 259.277 9.768 257.741 11.624C256.109 13.608 254.349 15.576 252.461 17.528C250.605 19.48 248.829 21.272 247.133 22.904C245.437 24.536 244.013 25.864 242.861 26.888C242.701 27.144 242.445 27.592 242.093 28.232C241.773 28.872 241.533 29.336 241.373 29.624C241.629 30.136 241.885 30.76 242.141 31.496C242.429 32.232 242.685 32.92 242.909 33.56C244.317 33.528 245.581 33.192 246.701 32.552C247.853 31.912 248.845 31.192 249.677 30.392C250.541 29.56 251.197 28.824 251.645 28.184C252.093 27.544 252.317 27.224 252.317 27.224C252.413 27.128 252.541 27.08 252.701 27.08C252.797 27.08 252.861 27.144 252.893 27.272C252.957 27.368 252.957 27.496 252.893 27.656C251.517 29.736 249.981 31.336 248.285 32.456C246.621 33.544 245.037 34.152 243.533 34.28C243.437 34.312 243.277 34.328 243.053 34.328C243.533 35.896 243.773 37.496 243.773 39.128C243.773 40.728 243.501 42.28 242.957 43.784C242.445 45.288 241.629 46.632 240.509 47.816C239.901 48.424 239.325 48.888 238.781 49.208C238.237 49.528 237.613 49.688 236.909 49.688ZM243.917 24.584C244.461 24.168 245.197 23.496 246.125 22.568C247.085 21.64 248.173 20.552 249.389 19.304C250.605 18.056 251.853 16.712 253.133 15.272C254.445 13.832 255.693 12.392 256.877 10.952C257.965 9.672 258.797 8.584 259.373 7.688C259.949 6.76 260.365 5.992 260.621 5.384C260.877 4.712 261.005 4.216 261.005 3.896C261.005 3.16 260.669 2.792 259.997 2.792C259.389 2.792 258.685 3.112 257.885 3.752C257.277 4.232 256.637 4.824 255.965 5.528C255.325 6.232 254.717 6.952 254.141 7.688C253.597 8.392 253.117 9.032 252.701 9.608C252.317 10.184 252.061 10.568 251.933 10.76C250.781 12.488 249.677 14.216 248.621 15.944C247.597 17.64 246.685 19.24 245.885 20.744C245.085 22.216 244.429 23.496 243.917 24.584ZM242.045 33.608C241.981 33.32 241.821 32.84 241.565 32.168C241.341 31.464 241.133 30.888 240.941 30.44C240.557 31.176 240.173 31.944 239.789 32.744C239.949 32.936 240.237 33.112 240.653 33.272C241.101 33.432 241.565 33.544 242.045 33.608ZM237.437 48.968C237.789 48.968 238.173 48.84 238.589 48.584C239.005 48.328 239.437 47.928 239.885 47.384C240.877 46.2 241.597 44.824 242.045 43.256C242.493 41.72 242.717 40.152 242.717 38.552C242.717 37.112 242.541 35.72 242.189 34.376C241.133 34.312 240.237 34.008 239.501 33.464C238.701 35.128 237.997 36.904 237.389 38.792C236.781 40.68 236.301 42.392 235.949 43.928C235.789 44.728 235.709 45.4 235.709 45.944C235.709 46.84 235.869 47.56 236.189 48.104C236.509 48.68 236.925 48.968 237.437 48.968ZM253.787 35.288C252.891 35.288 252.203 34.952 251.723 34.28C251.243 33.576 251.003 32.68 251.003 31.592C251.003 30.408 251.323 29.032 251.963 27.464C252.315 26.6 252.843 25.72 253.547 24.824C254.251 23.896 255.067 23.048 255.995 22.28C256.923 21.48 257.915 20.84 258.971 20.36C260.059 19.848 261.163 19.592 262.283 19.592C263.147 19.592 263.739 19.816 264.059 20.264C264.379 20.712 264.539 21.256 264.539 21.896C264.539 22.504 264.443 23.128 264.251 23.768L266.939 19.688C267.163 19.528 267.659 19.448 268.427 19.448C269.003 19.448 269.547 19.512 270.059 19.64C270.603 19.768 270.763 19.96 270.539 20.216C270.283 20.536 269.835 21.032 269.195 21.704C268.587 22.344 267.915 23.112 267.179 24.008C266.475 24.904 265.803 25.848 265.163 26.84C264.843 27.384 264.363 28.184 263.723 29.24C263.115 30.296 262.635 31.304 262.283 32.264C262.091 32.84 261.995 33.304 261.995 33.656C261.995 34.328 262.283 34.664 262.859 34.664C263.179 34.664 263.611 34.552 264.155 34.328C264.699 34.072 265.227 33.736 265.739 33.32C266.763 32.488 267.659 31.496 268.427 30.344C269.195 29.16 269.883 28.12 270.491 27.224C270.523 27.192 270.555 27.16 270.587 27.128C270.651 27.096 270.747 27.08 270.875 27.08C271.003 27.08 271.099 27.144 271.163 27.272C271.227 27.368 271.195 27.496 271.067 27.656C270.171 29 269.291 30.264 268.427 31.448C267.563 32.6 266.683 33.528 265.787 34.232C264.891 34.936 263.915 35.288 262.859 35.288C262.027 35.288 261.355 35.048 260.843 34.568C260.363 34.056 260.123 33.368 260.123 32.504C260.123 32.12 260.155 31.72 260.219 31.304C260.315 30.888 260.427 30.504 260.555 30.152C260.043 30.824 259.403 31.56 258.635 32.36C257.899 33.16 257.115 33.848 256.283 34.424C255.451 35 254.619 35.288 253.787 35.288ZM254.219 34.376C254.859 34.376 255.531 34.12 256.235 33.608C256.971 33.096 257.707 32.44 258.443 31.64C259.179 30.808 259.851 29.928 260.459 29C260.971 28.232 261.467 27.416 261.947 26.552C262.459 25.688 262.875 24.84 263.195 24.008C263.547 23.176 263.723 22.424 263.723 21.752C263.723 20.728 263.355 20.216 262.619 20.216C262.107 20.216 261.515 20.44 260.843 20.888C260.171 21.336 259.483 21.912 258.779 22.616C258.107 23.32 257.467 24.088 256.859 24.92C256.283 25.72 255.819 26.504 255.467 27.272C255.371 27.464 255.131 27.928 254.747 28.664C254.395 29.4 254.043 30.2 253.691 31.064C253.371 31.928 253.211 32.68 253.211 33.32C253.211 34.024 253.547 34.376 254.219 34.376ZM281.958 35.672C281.19 35.672 280.534 35.432 279.99 34.952C279.446 34.44 279.174 33.72 279.174 32.792C279.174 31.672 279.494 30.52 280.134 29.336C280.774 28.12 281.526 26.92 282.39 25.736C283.254 24.552 284.006 23.464 284.646 22.472C284.998 21.864 285.174 21.368 285.174 20.984C285.174 20.536 284.966 20.312 284.55 20.312C284.23 20.312 283.75 20.52 283.11 20.936C282.47 21.32 281.654 21.992 280.662 22.952C279.702 23.912 278.774 24.984 277.878 26.168C277.014 27.32 276.214 28.472 275.478 29.624C274.774 30.776 274.15 31.832 273.606 32.792C273.094 33.752 272.71 34.488 272.454 35C272.23 35.096 271.942 35.16 271.59 35.192C271.27 35.224 270.934 35.24 270.582 35.24C269.782 35.24 269.254 35.192 268.998 35.096C269.414 34.52 269.958 33.72 270.63 32.696C271.334 31.672 272.07 30.568 272.838 29.384C273.606 28.168 274.31 27.032 274.95 25.976C275.302 25.368 275.686 24.712 276.102 24.008C276.518 23.304 276.87 22.648 277.158 22.04C277.446 21.4 277.59 20.92 277.59 20.6C277.59 20.28 277.462 20.12 277.206 20.12C277.046 20.12 276.838 20.2 276.582 20.36C276.326 20.52 276.086 20.728 275.862 20.984C275.382 21.464 274.758 22.216 273.99 23.24C273.254 24.232 272.278 25.704 271.062 27.656C270.966 27.816 270.806 27.896 270.582 27.896C270.326 27.896 270.262 27.72 270.39 27.368C270.966 26.44 271.558 25.512 272.166 24.584C272.774 23.624 273.382 22.728 273.99 21.896C274.63 21.064 275.222 20.408 275.766 19.928C276.342 19.416 276.95 19.16 277.59 19.16C278.198 19.16 278.662 19.368 278.982 19.784C279.302 20.2 279.462 20.68 279.462 21.224C279.462 21.864 279.318 22.568 279.03 23.336C279.158 23.208 279.27 23.08 279.366 22.952C279.494 22.824 279.622 22.696 279.75 22.568C280.87 21.384 281.958 20.52 283.014 19.976C284.102 19.4 285.046 19.112 285.846 19.112C286.454 19.112 286.966 19.272 287.382 19.592C287.83 19.912 288.054 20.344 288.054 20.888C288.054 21.528 287.83 22.296 287.382 23.192C286.934 24.088 286.422 24.936 285.846 25.736C285.302 26.536 284.854 27.16 284.502 27.608C284.278 27.928 283.846 28.52 283.206 29.384C282.566 30.216 282.022 31.08 281.574 31.976C281.35 32.36 281.19 32.712 281.094 33.032C281.03 33.32 280.998 33.592 280.998 33.848C280.998 34.584 281.334 34.952 282.006 34.952C282.742 34.952 283.654 34.52 284.742 33.656C285.606 32.984 286.486 32.12 287.382 31.064C288.31 29.976 289.19 28.744 290.022 27.368C290.118 27.208 290.214 27.128 290.31 27.128C290.406 27.096 290.47 27.08 290.502 27.08C290.726 27.08 290.79 27.272 290.694 27.656C289.766 29.128 288.79 30.488 287.766 31.736C286.774 32.984 285.766 33.976 284.742 34.712C283.814 35.352 282.886 35.672 281.958 35.672ZM299.151 17.528C298.703 17.528 298.351 17.384 298.095 17.096C297.871 16.808 297.759 16.472 297.759 16.088C297.759 15.448 297.983 14.936 298.431 14.552C298.879 14.168 299.359 13.976 299.871 13.976C300.319 13.976 300.671 14.12 300.927 14.408C301.183 14.664 301.311 15 301.311 15.416C301.311 16.024 301.087 16.536 300.639 16.952C300.191 17.336 299.695 17.528 299.151 17.528ZM291.183 35.576C290.319 35.576 289.583 35.32 288.975 34.808C288.399 34.264 288.111 33.496 288.111 32.504C288.111 31.992 288.207 31.4 288.399 30.728C288.623 30.024 288.879 29.384 289.167 28.808C289.487 28.2 289.759 27.704 289.983 27.32C290.239 26.936 290.367 26.744 290.367 26.744L295.071 19.784C295.263 19.624 295.503 19.528 295.791 19.496C296.079 19.432 296.383 19.4 296.703 19.4C297.151 19.4 297.535 19.448 297.855 19.544C298.175 19.608 298.303 19.72 298.239 19.88L293.487 26.936C293.391 27.064 293.071 27.512 292.527 28.28C292.015 29.016 291.519 29.832 291.039 30.728C290.431 31.848 290.127 32.808 290.127 33.608C290.127 34.472 290.527 34.904 291.327 34.904C291.583 34.904 291.887 34.856 292.239 34.76C292.623 34.632 293.055 34.44 293.535 34.184C295.551 33.064 297.615 30.792 299.727 27.368C299.823 27.208 299.903 27.128 299.967 27.128C300.063 27.096 300.127 27.08 300.159 27.08C300.319 27.08 300.415 27.144 300.447 27.272C300.511 27.368 300.495 27.496 300.399 27.656C299.247 29.416 298.111 30.936 296.991 32.216C295.903 33.496 294.751 34.424 293.535 35C292.735 35.384 291.951 35.576 291.183 35.576Z" fill="white"/>
</svg>
