<svg width="131" height="55" viewBox="0 0 131 55" fill="none" xmlns="http://www.w3.org/2000/svg">
<g clip-path="url(#clip0_68_2)">
<path fill-rule="evenodd" clip-rule="evenodd" d="M20 23.9092H22.36C24.8 23.9092 26.1172 27.0974 24.5286 29.1624L22.2172 32.1644C22.4671 33.9451 23.3108 35.5553 24.5799 36.6737C25.8489 37.7921 27.4501 38.3365 29.0637 38.1981C30.6773 38.0598 32.1847 37.2489 33.2851 35.9273C34.3854 34.6057 34.9978 32.8706 35 31.0683C35 30.4354 35.2258 29.8284 35.6276 29.3809C36.0295 28.9333 36.5745 28.6819 37.1429 28.6819C37.7112 28.6819 38.2562 28.9333 38.6581 29.3809C39.06 29.8284 39.2857 30.4354 39.2857 31.0683C39.2857 33.5725 38.5782 36.0133 37.2633 38.0449C35.9485 40.0765 34.0929 41.5959 31.9596 42.3878C29.8262 43.1797 27.5232 43.204 25.3768 42.4574C23.2303 41.7107 21.3493 40.2308 20 38.2274C18.6508 40.2308 16.7697 41.7107 14.6232 42.4574C12.4768 43.204 10.1738 43.1797 8.04043 42.3878C5.90708 41.5959 4.05156 40.0765 2.7367 38.0449C1.42184 36.0133 0.714294 33.5725 0.714294 31.0683C0.714294 30.4354 0.940059 29.8284 1.34192 29.3809C1.74379 28.9333 2.28883 28.6819 2.85715 28.6819C3.42547 28.6819 3.97052 28.9333 4.37238 29.3809C4.77424 29.8284 5.00001 30.4354 5.00001 31.0683C4.99752 32.8737 5.60768 34.6136 6.70827 35.9393C7.80885 37.265 9.31858 38.0786 10.935 38.2172C12.5515 38.3558 14.1553 37.8092 15.4251 36.6867C16.695 35.5643 17.5371 33.949 17.7829 32.1644L15.4714 29.1624C13.8829 27.0974 15.2 23.9092 17.6429 23.9092H20Z" fill="black"/>
<path d="M30 17.5455C32.3669 17.5455 34.2857 15.4086 34.2857 12.7727C34.2857 10.1368 32.3669 8 30 8C27.6331 8 25.7143 10.1368 25.7143 12.7727C25.7143 15.4086 27.6331 17.5455 30 17.5455Z" fill="black"/>
<path d="M10 17.5455C12.3669 17.5455 14.2857 15.4086 14.2857 12.7727C14.2857 10.1368 12.3669 8 10 8C7.63307 8 5.71429 10.1368 5.71429 12.7727C5.71429 15.4086 7.63307 17.5455 10 17.5455Z" fill="black"/>
</g>
<path d="M64.6758 35.5234C65.9883 35.1484 67.0547 34.5391 67.875 33.6953C68.6953 32.8281 69.3398 31.832 69.8086 30.707C70.2773 29.582 70.5938 28.3984 70.7578 27.1562C70.9219 25.8906 71.0039 24.6719 71.0039 23.5C71.0039 21.9531 70.7344 20.582 70.1953 19.3867C69.6797 18.168 69.0352 17.125 68.2617 16.2578C67.4883 15.3672 66.6562 14.6523 65.7656 14.1133C64.875 13.5742 64.0664 13.2109 63.3398 13.0234C62.2148 12.7188 61.2422 12.5078 60.4219 12.3906C59.625 12.2734 58.8867 12.2148 58.207 12.2148C57.5273 12.2148 56.8828 12.2734 56.2734 12.3906C55.6875 12.4844 55.0547 12.6133 54.375 12.7773C54.4688 13.5742 54.5508 14.4648 54.6211 15.4492C54.7148 16.4102 54.7969 17.3711 54.8672 18.332C54.9375 19.2695 54.9844 20.1602 55.0078 21.0039C55.0547 21.8242 55.0781 22.5039 55.0781 23.043C55.0781 23.4414 55.1016 23.9805 55.1484 24.6602C55.1953 25.3164 55.2422 26.0547 55.2891 26.875C55.3594 27.6953 55.4297 28.5508 55.5 29.4414C55.5938 30.3086 55.6758 31.1523 55.7461 31.9727C55.8398 32.7695 55.9219 33.4961 55.9922 34.1523C56.0625 34.8086 56.1211 35.3125 56.168 35.6641C56.8477 35.7109 57.5625 35.7461 58.3125 35.7695C59.0859 35.7695 59.8477 35.7695 60.5977 35.7695C61.5352 35.7695 62.3672 35.7578 63.0938 35.7344C63.8203 35.6875 64.3477 35.6172 64.6758 35.5234ZM63.832 11.125C64.7461 11.3828 65.7305 11.8281 66.7852 12.4609C67.8633 13.0938 68.8594 13.9258 69.7734 14.957C70.6875 15.9648 71.4492 17.1836 72.0586 18.6133C72.668 20.043 72.9727 21.6719 72.9727 23.5C72.9727 25.9141 72.7266 27.9531 72.2344 29.6172C71.7656 31.2812 71.1562 32.6523 70.4062 33.7305C69.6562 34.7852 68.8242 35.6055 67.9102 36.1914C66.9961 36.7539 66.0938 37.1641 65.2031 37.4219C64.7812 37.5391 64.1367 37.6211 63.2695 37.668C62.4258 37.7148 61.5234 37.7383 60.5625 37.7383C59.9531 37.7383 59.3438 37.7266 58.7344 37.7031C58.1484 37.7031 57.6094 37.6914 57.1172 37.668C56.625 37.668 56.2031 37.6562 55.8516 37.6328C55.5234 37.6094 55.3008 37.5977 55.1836 37.5977C54.9258 37.5977 54.7031 37.4922 54.5156 37.2812C54.3516 37.0703 54.2695 36.7891 54.2695 36.4375C54.2461 36.3672 54.1992 36.0508 54.1289 35.4883C54.082 34.9258 54.0117 34.2344 53.918 33.4141C53.8477 32.5703 53.7656 31.6445 53.6719 30.6367C53.5781 29.6289 53.4844 28.6445 53.3906 27.6836C53.3203 26.6992 53.25 25.7969 53.1797 24.9766C53.1328 24.1562 53.1094 23.5117 53.1094 23.043C53.1094 22.457 53.0859 21.7305 53.0391 20.8633C53.0156 19.9961 52.9688 19.0938 52.8984 18.1562C52.8281 17.1953 52.7461 16.2578 52.6523 15.3438C52.5586 14.4063 52.4648 13.5625 52.3711 12.8125C52.3242 12.7656 52.2773 12.6953 52.2305 12.6016C52.1836 12.4844 52.1367 12.3203 52.0898 12.1094C52.0898 11.9219 52.125 11.7578 52.1953 11.6172C52.1953 11.5703 52.1836 11.5117 52.1602 11.4414C52.1602 11.3477 52.1484 11.2305 52.125 11.0898C52.125 10.8555 52.207 10.6445 52.3711 10.457C52.5352 10.2695 52.7812 10.1523 53.1094 10.1055C53.625 10.1055 53.9414 10.3516 54.0586 10.8438C54.7617 10.6562 55.4297 10.5156 56.0625 10.4219C56.7188 10.3047 57.4336 10.2461 58.207 10.2461C58.9336 10.2461 59.7422 10.3164 60.6328 10.457C61.5469 10.5742 62.6133 10.7969 63.832 11.125ZM83.8711 35.7695C84.3164 35.7695 84.8789 35.5586 85.5586 35.1367C86.2617 34.6914 86.9414 34.082 87.5977 33.3086C88.2539 32.5117 88.8164 31.5625 89.2852 30.4609C89.7539 29.3594 89.9883 28.1289 89.9883 26.7695C89.9883 25.457 89.8242 24.3086 89.4961 23.3242C89.1914 22.3164 88.8281 21.4727 88.4062 20.793C88.0078 20.0898 87.5977 19.5625 87.1758 19.2109C86.7773 18.8594 86.4844 18.6602 86.2969 18.6133C85.8984 18.6133 85.5352 18.6484 85.207 18.7188C84.9023 18.7656 84.6914 18.8008 84.5742 18.8242C84.293 18.8242 84.0352 18.707 83.8008 18.4727C83.2148 18.707 82.6055 19.2344 81.9727 20.0547C81.3398 20.875 80.7539 21.8359 80.2148 22.9375C79.6758 24.0156 79.2305 25.1758 78.8789 26.418C78.5273 27.6367 78.3516 28.7617 78.3516 29.793C78.3516 30.8711 78.5391 31.7969 78.9141 32.5703C79.2891 33.3203 79.7578 33.9297 80.3203 34.3984C80.8828 34.8672 81.4805 35.2188 82.1133 35.4531C82.7461 35.6641 83.332 35.7695 83.8711 35.7695ZM86.332 16.6445C86.8242 16.6445 87.3867 16.8906 88.0195 17.3828C88.6758 17.8516 89.2852 18.5312 89.8477 19.4219C90.4336 20.2891 90.9258 21.3438 91.3242 22.5859C91.7461 23.8281 91.957 25.2227 91.957 26.7695C91.957 28.3398 91.6875 29.793 91.1484 31.1289C90.6094 32.4648 89.9297 33.625 89.1094 34.6094C88.3125 35.5938 87.4336 36.3672 86.4727 36.9297C85.5352 37.4688 84.668 37.7383 83.8711 37.7383C82.957 37.7383 82.0547 37.5625 81.1641 37.2109C80.2734 36.8594 79.4766 36.3555 78.7734 35.6992C78.0703 35.0195 77.4961 34.1875 77.0508 33.2031C76.6055 32.2188 76.3828 31.082 76.3828 29.793C76.3828 28.9727 76.4883 28.0703 76.6992 27.0859C76.9102 26.1016 77.1914 25.1172 77.543 24.1328C77.918 23.125 78.3516 22.1641 78.8438 21.25C79.3594 20.3125 79.9102 19.4805 80.4961 18.7539C81.082 18.0273 81.7031 17.4531 82.3594 17.0312C83.0156 16.5859 83.6836 16.3633 84.3633 16.3633C84.6211 16.3633 84.8438 16.3984 85.0312 16.4688C85.2422 16.5156 85.4297 16.5859 85.5938 16.6797C85.7109 16.6797 85.8281 16.6797 85.9453 16.6797C86.0625 16.6562 86.1914 16.6445 86.332 16.6445ZM107.742 31.7617C107.812 31.5508 107.965 31.3867 108.199 31.2695C108.035 29.6523 107.895 28.1523 107.777 26.7695C107.684 25.3867 107.637 24.2617 107.637 23.3945V22.9727C107.402 22.8555 107.238 22.7031 107.145 22.5156C106.652 21.6016 106.16 20.9453 105.668 20.5469C105.199 20.1484 104.895 19.9375 104.754 19.9141C104.355 19.9141 103.992 19.9375 103.664 19.9844C103.359 20.0312 103.148 20.0664 103.031 20.0898C102.727 20.0898 102.48 19.9727 102.293 19.7383C101.707 19.9727 101.086 20.5 100.43 21.3203C99.7969 22.1406 99.2109 23.1016 98.6719 24.2031C98.1328 25.2812 97.6875 26.4414 97.3359 27.6836C96.9844 28.9023 96.8086 30.0273 96.8086 31.0586C96.8086 32.1602 96.9961 33.0859 97.3711 33.8359C97.7461 34.5859 98.2148 35.207 98.7773 35.6992C99.3398 36.168 99.9375 36.5078 100.57 36.7188C101.227 36.9297 101.824 37.0352 102.363 37.0352C102.715 37.0352 103.125 36.918 103.594 36.6836C104.086 36.4258 104.578 36.0742 105.07 35.6289C105.586 35.1602 106.078 34.6094 106.547 33.9766C107.016 33.3203 107.414 32.582 107.742 31.7617ZM109.605 23.3945C109.605 23.9336 109.629 24.6133 109.676 25.4336C109.723 26.2305 109.781 27.1094 109.852 28.0703C109.945 29.0078 110.039 30.0156 110.133 31.0938C110.227 32.1484 110.332 33.2148 110.449 34.293C110.543 35.3477 110.637 36.3672 110.73 37.3516C110.848 38.3594 110.941 39.2969 111.012 40.1641C111.082 41.0547 111.141 41.8633 111.188 42.5898C111.234 43.3164 111.258 43.9258 111.258 44.418C111.258 45.2617 111.094 46.0938 110.766 46.9141C110.438 47.7578 109.957 48.5078 109.324 49.1641C108.691 49.8203 107.906 50.3477 106.969 50.7461C106.055 51.168 104.988 51.3789 103.77 51.3789C100.301 51.3789 97.8164 49.4805 96.3164 45.6836C96.2695 45.5898 96.2461 45.4609 96.2461 45.2969C96.2461 44.875 96.4453 44.5703 96.8438 44.3828C96.9141 44.3594 96.9727 44.3359 97.0195 44.3125C97.0898 44.3125 97.1602 44.3125 97.2305 44.3125C97.6523 44.3125 97.957 44.5352 98.1445 44.9805C98.2617 45.2852 98.4375 45.6836 98.6719 46.1758C98.9297 46.6914 99.2695 47.1836 99.6914 47.6523C100.113 48.1211 100.652 48.5312 101.309 48.8828C101.988 49.2344 102.809 49.4102 103.77 49.4102C104.777 49.4102 105.633 49.2461 106.336 48.918C107.039 48.5898 107.602 48.168 108.023 47.6523C108.469 47.1602 108.785 46.6211 108.973 46.0352C109.184 45.4492 109.289 44.9102 109.289 44.418C109.289 43.9492 109.266 43.3516 109.219 42.625C109.172 41.9219 109.113 41.1367 109.043 40.2695C108.973 39.4023 108.891 38.4766 108.797 37.4922C108.703 36.5312 108.609 35.5586 108.516 34.5742C108.07 35.2773 107.578 35.8984 107.039 36.4375C106.523 36.9766 105.984 37.4336 105.422 37.8086C104.883 38.207 104.344 38.5 103.805 38.6875C103.289 38.8984 102.809 39.0039 102.363 39.0039C101.449 39.0039 100.535 38.8281 99.6211 38.4766C98.7305 38.1484 97.9336 37.6562 97.2305 37C96.5273 36.3203 95.9531 35.4883 95.5078 34.5039C95.0625 33.4961 94.8398 32.3477 94.8398 31.0586C94.8398 30.2383 94.9453 29.3359 95.1562 28.3516C95.3672 27.3672 95.6484 26.3828 96 25.3984C96.375 24.4141 96.8086 23.4531 97.3008 22.5156C97.8164 21.5781 98.3672 20.7578 98.9531 20.0547C99.5391 19.3281 100.16 18.7539 100.816 18.332C101.473 17.8867 102.141 17.6641 102.82 17.6641C103.312 17.6641 103.723 17.7695 104.051 17.9805C104.168 17.957 104.285 17.9453 104.402 17.9453C104.52 17.9453 104.648 17.9453 104.789 17.9453C105.211 17.9453 105.68 18.1094 106.195 18.4375C106.711 18.7656 107.203 19.2227 107.672 19.8086C107.719 19.5273 107.789 19.2695 107.883 19.0352C108 18.8008 108.246 18.6719 108.621 18.6484L109.535 18.5781L109.676 19.4922C109.676 19.5391 109.676 19.5859 109.676 19.6328C109.676 19.6562 109.664 19.75 109.641 19.9141C109.641 20.0547 109.629 20.3711 109.605 20.8633C109.605 21.3555 109.605 22.1992 109.605 23.3945ZM123.316 24.9766C127.465 26.9922 129.539 29.1133 129.539 31.3398C129.539 32.0195 129.387 32.6875 129.082 33.3438C128.777 34 128.414 34.6094 127.992 35.1719C127.57 35.7109 127.125 36.1914 126.656 36.6133C126.211 37.0117 125.836 37.293 125.531 37.457C125.25 37.6211 124.875 37.7734 124.406 37.9141C123.961 38.0781 123.492 38.2188 123 38.3359C122.531 38.4531 122.074 38.5469 121.629 38.6172C121.207 38.6875 120.855 38.7227 120.574 38.7227C119.965 38.7227 119.309 38.6172 118.605 38.4062C117.926 38.2188 117.27 37.8906 116.637 37.4219C116.004 36.9766 115.43 36.3789 114.914 35.6289C114.422 34.8789 114.035 33.9531 113.754 32.8516C113.754 32.3359 114.082 32.0078 114.738 31.8672C114.949 31.8672 115.148 31.9375 115.336 32.0781C115.523 32.1953 115.641 32.3711 115.688 32.6055C115.945 33.5898 116.309 34.3633 116.777 34.9258C117.27 35.4648 117.762 35.875 118.254 36.1562C118.77 36.4375 119.238 36.6133 119.66 36.6836C120.105 36.7305 120.41 36.7539 120.574 36.7539C120.785 36.7539 121.078 36.7305 121.453 36.6836C121.828 36.6133 122.203 36.5312 122.578 36.4375C122.977 36.3203 123.352 36.2031 123.703 36.0859C124.078 35.9688 124.359 35.8516 124.547 35.7344C124.758 35.6172 125.039 35.4062 125.391 35.1016C125.742 34.7734 126.07 34.4102 126.375 34.0117C126.703 33.5898 126.984 33.1445 127.219 32.6758C127.453 32.207 127.57 31.7617 127.57 31.3398C127.57 31.1055 127.5 30.8359 127.359 30.5312C127.219 30.2031 126.961 29.8516 126.586 29.4766C126.234 29.0781 125.719 28.6562 125.039 28.2109C124.383 27.7656 123.527 27.2852 122.473 26.7695C121.793 26.4414 121.078 26.1016 120.328 25.75C119.602 25.3984 118.922 25.082 118.289 24.8008C117.656 24.4961 117.129 24.2383 116.707 24.0273L116.074 23.7461L115.512 23.5V22.8672C115.512 21.7891 115.781 20.8516 116.32 20.0547C116.859 19.2344 117.516 18.5547 118.289 18.0156C119.062 17.4531 119.871 17.0312 120.715 16.75C121.582 16.4688 122.344 16.3281 123 16.3281C123.68 16.3281 124.254 16.4102 124.723 16.5742C125.191 16.7383 125.578 16.9258 125.883 17.1367C126.188 17.3242 126.41 17.5117 126.551 17.6992C126.715 17.8633 126.809 17.9688 126.832 18.0156C126.949 18.1797 127.008 18.3555 127.008 18.543C127.008 18.8945 126.855 19.1641 126.551 19.3516C126.363 19.4688 126.188 19.5273 126.023 19.5273C125.672 19.5273 125.402 19.375 125.215 19.0703C125.191 19.0703 125.133 19.0352 125.039 18.9648C124.969 18.8711 124.84 18.7773 124.652 18.6836C124.488 18.5898 124.266 18.5078 123.984 18.4375C123.727 18.3438 123.398 18.2969 123 18.2969C122.602 18.2969 122.121 18.3789 121.559 18.543C120.996 18.707 120.434 18.9648 119.871 19.3164C119.309 19.6445 118.805 20.0547 118.359 20.5469C117.914 21.0391 117.633 21.6133 117.516 22.2695C117.82 22.4102 118.195 22.5859 118.641 22.7969C119.086 22.9844 119.566 23.207 120.082 23.4648C120.621 23.6992 121.172 23.957 121.734 24.2383C122.297 24.4961 122.824 24.7422 123.316 24.9766Z" fill="black"/>
<defs>
<clipPath id="clip0_68_2">
<rect width="40" height="35" fill="black" transform="translate(0 8)"/>
</clipPath>
</defs>
</svg>
