<svg width="140" height="47" viewBox="0 0 140 47" fill="none" xmlns="http://www.w3.org/2000/svg">
<path d="M70.116 28.992C69.396 29.088 68.724 29.148 68.1 29.172C67.5 29.196 66.924 29.208 66.372 29.208C64.764 29.208 63.684 29.088 63.132 28.848C62.58 28.584 62.304 28.14 62.304 27.516C62.304 27.108 62.436 26.736 62.7 26.4C62.988 26.064 63.396 25.776 63.924 25.536C64.548 25.272 65.46 25.032 66.66 24.816C67.884 24.576 69.144 24.456 70.44 24.456C72.12 24.456 73.416 24.6 74.328 24.888C75.264 25.152 75.732 25.668 75.732 26.436C75.732 27.036 75.492 27.552 75.012 27.984C74.532 28.392 73.74 28.656 72.636 28.776L70.116 28.992ZM72.78 28.272C73.404 29.064 73.848 29.868 74.112 30.684C74.376 31.5 74.508 32.232 74.508 32.88C74.508 33.96 74.184 35.004 73.536 36.012C72.912 36.996 71.928 37.812 70.584 38.46C69.24 39.084 67.476 39.396 65.292 39.396C62.484 39.396 60.144 38.88 58.272 37.848C56.424 36.792 55.044 35.316 54.132 33.42C53.22 31.5 52.764 29.268 52.764 26.724C52.764 23.988 53.34 21.564 54.492 19.452C55.644 17.34 57.276 15.696 59.388 14.52C61.5 13.32 63.972 12.72 66.804 12.72C69.156 12.72 70.956 13.14 72.204 13.98C73.476 14.796 74.112 15.756 74.112 16.86C74.112 17.532 73.884 18.06 73.428 18.444C72.996 18.804 72.36 18.984 71.52 18.984C71.016 18.984 70.488 18.9 69.936 18.732C69.408 18.564 68.808 18.408 68.136 18.264C67.488 18.096 66.744 18.012 65.904 18.012C64.368 18.012 62.952 18.3 61.656 18.876C60.36 19.428 59.316 20.352 58.524 21.648C57.756 22.92 57.372 24.636 57.372 26.796C57.372 28.644 57.72 30.156 58.416 31.332C59.136 32.484 60.132 33.336 61.404 33.888C62.676 34.416 64.128 34.68 65.76 34.68C66.864 34.68 67.728 34.56 68.352 34.32C69 34.08 69.456 33.72 69.72 33.24C70.008 32.76 70.152 32.148 70.152 31.404C70.152 30.996 70.092 30.492 69.972 29.892C69.876 29.292 69.72 28.692 69.504 28.092L72.78 28.272ZM94.2757 39.36C93.4597 39.36 92.8957 39.048 92.5837 38.424C92.2957 37.776 92.1277 36.756 92.0797 35.364L92.4397 35.544C91.0957 38.16 88.5517 39.468 84.8077 39.468C83.1037 39.468 81.6877 39.168 80.5597 38.568C79.4317 37.944 78.5917 37.128 78.0397 36.12C77.5117 35.088 77.2477 33.972 77.2477 32.772C77.2477 30.708 77.9677 29.076 79.4077 27.876C80.8477 26.652 82.7557 26.04 85.1317 26.04C86.6917 26.04 88.0477 26.268 89.1997 26.724C90.3517 27.18 91.3357 27.816 92.1517 28.632L91.5397 28.56C91.3717 26.136 90.8437 24.408 89.9557 23.376C89.0917 22.32 87.8557 21.792 86.2477 21.792C85.3117 21.792 84.4477 21.936 83.6557 22.224C82.8637 22.512 82.1317 22.812 81.4597 23.124C80.8117 23.412 80.1997 23.556 79.6237 23.556C79.0477 23.556 78.5917 23.364 78.2557 22.98C77.9437 22.596 77.7877 22.104 77.7877 21.504C77.7877 20.64 78.1957 19.824 79.0117 19.056C79.8517 18.288 80.9557 17.664 82.3237 17.184C83.6917 16.704 85.1797 16.464 86.7877 16.464C88.7317 16.464 90.3997 16.932 91.7917 17.868C93.1837 18.804 94.2397 20.172 94.9597 21.972C95.5837 23.508 96.0277 25.224 96.2917 27.12C96.5557 29.016 96.6877 31.044 96.6877 33.204C96.6877 34.836 96.6037 36.096 96.4357 36.984C96.2677 37.872 96.0037 38.496 95.6437 38.856C95.3077 39.192 94.8517 39.36 94.2757 39.36ZM86.3197 35.328C87.1117 35.328 87.9157 35.22 88.7317 35.004C89.5477 34.764 90.2317 34.416 90.7837 33.96C91.3357 33.504 91.6117 32.94 91.6117 32.268C91.6117 31.692 91.3717 31.224 90.8917 30.864C90.4357 30.48 89.8237 30.192 89.0557 30C88.3117 29.808 87.5077 29.712 86.6437 29.712C85.1797 29.712 84.0637 29.964 83.2957 30.468C82.5517 30.972 82.1797 31.644 82.1797 32.484C82.1797 33.396 82.5277 34.104 83.2237 34.608C83.9437 35.088 84.9757 35.328 86.3197 35.328ZM106.073 17.328H105.353C105.281 16.272 105.305 15.276 105.425 14.34C105.545 13.38 105.797 12.612 106.181 12.036C106.589 11.436 107.165 11.136 107.909 11.136C108.581 11.136 109.073 11.352 109.385 11.784C109.697 12.216 109.853 12.816 109.853 13.584C109.853 15.096 109.565 16.392 108.989 17.472L108.341 17.4C109.637 16.944 111.101 16.716 112.733 16.716C113.765 16.716 114.581 16.92 115.181 17.328C115.805 17.712 116.117 18.372 116.117 19.308C116.117 20.196 115.757 20.868 115.037 21.324C114.317 21.78 113.417 22.008 112.337 22.008C111.689 22.008 110.993 21.984 110.249 21.936C109.529 21.864 108.821 21.756 108.125 21.612L108.737 20.856C108.953 21.768 109.157 22.812 109.349 23.988C109.565 25.14 109.757 26.34 109.925 27.588C110.093 28.836 110.225 30.048 110.321 31.224C110.417 32.4 110.465 33.456 110.465 34.392C110.465 35.928 110.225 37.14 109.745 38.028C109.265 38.916 108.557 39.36 107.621 39.36C106.877 39.36 106.289 39.132 105.857 38.676C105.449 38.22 105.149 37.644 104.957 36.948C104.789 36.228 104.681 35.484 104.633 34.716C104.609 33.948 104.597 33.252 104.597 32.628C104.597 31.572 104.645 30.384 104.741 29.064C104.837 27.72 104.969 26.34 105.137 24.924C105.329 23.508 105.545 22.14 105.785 20.82L106.505 21.432C105.281 22.056 103.769 22.368 101.969 22.368C100.865 22.368 100.013 22.164 99.413 21.756C98.813 21.348 98.513 20.712 98.513 19.848C98.513 18.912 98.849 18.192 99.521 17.688C100.193 17.16 101.093 16.896 102.221 16.896C102.965 16.896 103.661 16.944 104.309 17.04C104.981 17.112 105.569 17.208 106.073 17.328ZM127.44 39.108C125.52 39.108 123.84 38.688 122.4 37.848C120.984 36.984 119.88 35.76 119.088 34.176C118.32 32.592 117.936 30.708 117.936 28.524C117.936 26.244 118.332 24.252 119.124 22.548C119.916 20.844 121.032 19.512 122.472 18.552C123.936 17.592 125.628 17.112 127.548 17.112C129.612 17.112 131.4 17.58 132.912 18.516C134.424 19.428 135.6 20.712 136.44 22.368C137.28 24.024 137.7 25.956 137.7 28.164C137.7 30.42 137.28 32.364 136.44 33.996C135.6 35.628 134.412 36.888 132.876 37.776C131.34 38.664 129.528 39.108 127.44 39.108ZM127.944 34.248C129.432 34.248 130.608 33.66 131.472 32.484C132.36 31.284 132.804 29.7 132.804 27.732C132.804 25.74 132.36 24.156 131.472 22.98C130.608 21.804 129.432 21.216 127.944 21.216C126.408 21.216 125.196 21.804 124.308 22.98C123.42 24.156 122.976 25.74 122.976 27.732C122.976 29.7 123.42 31.284 124.308 32.484C125.196 33.66 126.408 34.248 127.944 34.248Z" fill="white" fill-opacity="0.98"/>
<path d="M18.0673 10.5497C18.7216 10.0071 18.7746 9.07842 18.1858 8.47547C17.597 7.87254 16.5892 7.82366 15.935 8.36632L12.2428 11.4286C10.6781 12.7263 9.38014 13.8028 8.4889 14.7792C7.55171 15.8058 6.8855 16.9089 6.8855 18.2705C6.8855 19.6322 7.55171 20.7353 8.4889 21.7618C9.38014 22.7383 10.6781 23.8148 12.2428 25.1124L15.935 28.1748C16.5892 28.7175 17.597 28.6685 18.1858 28.0655C18.7746 27.4626 18.7216 26.5339 18.0673 25.9913L14.4623 23.0013C12.7881 21.6126 11.6593 20.6718 10.9281 19.8709C10.2263 19.102 10.073 18.6532 10.073 18.2705C10.073 17.8878 10.2263 17.439 10.9281 16.6702C11.6593 15.8692 12.7881 14.9284 14.4623 13.5398L18.0673 10.5497Z" fill="#5900B9" fill-opacity="0.98"/>
<path d="M32.8163 20.559C33.4052 19.9561 34.4128 19.9071 35.0671 20.4498L38.7593 23.5122C40.324 24.8098 41.6219 25.8863 42.5133 26.8627C43.4505 27.8895 44.1167 28.9924 44.1167 30.354C44.1167 31.7157 43.4505 32.8188 42.5133 33.8454C41.6219 34.8218 40.324 35.8983 38.7593 37.1959L35.0671 40.2583C34.4128 40.801 33.4052 40.752 32.8163 40.149C32.2275 39.5461 32.2806 38.6174 32.9349 38.0748L36.5398 35.0848C38.214 33.6961 39.3428 32.7554 40.0741 31.9544C40.7759 31.1856 40.9292 30.7367 40.9292 30.354C40.9292 29.9714 40.7759 29.5225 40.0741 28.7537C39.3428 27.9527 38.214 27.012 36.5398 25.6233L32.9349 22.6333C32.2806 22.0907 32.2275 21.162 32.8163 20.559Z" fill="#5900B9" fill-opacity="0.98"/>
<path opacity="0.5" d="M30.1319 8.37216C30.9825 8.58052 31.4887 9.38495 31.2626 10.1689L22.7906 39.5439C22.5645 40.3278 21.6916 40.7945 20.841 40.5861C19.9903 40.3778 19.484 39.5733 19.7101 38.7894L28.1822 9.41434C28.4083 8.63038 29.281 8.16379 30.1319 8.37216Z" fill="#5900B9" fill-opacity="0.98"/>
</svg>
