<svg width="219" height="47" viewBox="0 0 219 47" fill="none" xmlns="http://www.w3.org/2000/svg">
<path d="M63.348 13.116C66.204 13.116 68.304 13.848 69.648 15.312C71.016 16.776 71.7 18.696 71.7 21.072C71.7 22.704 71.316 24.12 70.548 25.32C69.804 26.52 68.784 27.456 67.488 28.128C66.192 28.776 64.728 29.1 63.096 29.1C62.328 29.1 61.512 29.016 60.648 28.848C59.808 28.68 58.932 28.356 58.02 27.876L58.2 27.408C58.392 28.008 58.548 28.752 58.668 29.64C58.812 30.504 58.92 31.404 58.992 32.34C59.088 33.252 59.136 34.092 59.136 34.86C59.136 36.276 58.896 37.368 58.416 38.136C57.96 38.88 57.276 39.252 56.364 39.252C55.596 39.252 54.984 39.012 54.528 38.532C54.096 38.052 53.796 37.26 53.628 36.156C53.46 35.052 53.376 33.576 53.376 31.728C53.376 28.176 53.532 25.152 53.844 22.656C54.18 20.136 54.744 18.156 55.536 16.716C56.16 15.612 57.12 14.736 58.416 14.088C59.736 13.44 61.38 13.116 63.348 13.116ZM62.664 24.852C64.104 24.852 65.268 24.468 66.156 23.7C67.068 22.932 67.524 21.816 67.524 20.352C67.524 19.392 67.2 18.6 66.552 17.976C65.928 17.328 64.944 17.004 63.6 17.004C62.616 17.004 61.764 17.232 61.044 17.688C60.324 18.12 59.772 18.732 59.388 19.524C59.028 20.292 58.848 21.18 58.848 22.188C58.848 23.124 59.148 23.808 59.748 24.24C60.372 24.648 61.344 24.852 62.664 24.852ZM83.5299 39.108C81.6099 39.108 79.9299 38.688 78.4899 37.848C77.0739 36.984 75.9699 35.76 75.1779 34.176C74.4099 32.592 74.0259 30.708 74.0259 28.524C74.0259 26.244 74.4219 24.252 75.2139 22.548C76.0059 20.844 77.1219 19.512 78.5619 18.552C80.0259 17.592 81.7179 17.112 83.6379 17.112C85.7019 17.112 87.4899 17.58 89.0019 18.516C90.5139 19.428 91.6899 20.712 92.5299 22.368C93.3699 24.024 93.7899 25.956 93.7899 28.164C93.7899 30.42 93.3699 32.364 92.5299 33.996C91.6899 35.628 90.5019 36.888 88.9659 37.776C87.4299 38.664 85.6179 39.108 83.5299 39.108ZM84.0339 34.248C85.5219 34.248 86.6979 33.66 87.5619 32.484C88.4499 31.284 88.8939 29.7 88.8939 27.732C88.8939 25.74 88.4499 24.156 87.5619 22.98C86.6979 21.804 85.5219 21.216 84.0339 21.216C82.4979 21.216 81.2859 21.804 80.3979 22.98C79.5099 24.156 79.0659 25.74 79.0659 27.732C79.0659 29.7 79.5099 31.284 80.3979 32.484C81.2859 33.66 82.4979 34.248 84.0339 34.248ZM97.4226 22.764C97.4226 20.46 97.6386 18.804 98.0706 17.796C98.5026 16.764 99.1146 16.248 99.9066 16.248C100.531 16.248 101.023 16.512 101.383 17.04C101.743 17.544 102.007 18.18 102.175 18.948C102.343 19.692 102.427 20.448 102.427 21.216L102.247 21.144C102.655 19.848 103.279 18.732 104.119 17.796C104.983 16.86 106.015 16.392 107.215 16.392C108.631 16.392 109.675 16.98 110.347 18.156C111.019 19.308 111.355 20.748 111.355 22.476C111.355 24.78 111.091 26.388 110.563 27.3C110.035 28.212 109.327 28.668 108.439 28.668C107.791 28.668 107.311 28.404 106.999 27.876C106.711 27.348 106.615 26.412 106.711 25.068C106.807 23.652 106.723 22.668 106.459 22.116C106.195 21.564 105.775 21.288 105.199 21.288C104.503 21.288 103.927 21.732 103.471 22.62C103.039 23.484 102.823 24.552 102.823 25.824C102.823 26.328 102.883 26.964 103.003 27.732C103.123 28.5 103.255 29.34 103.399 30.252C103.543 31.14 103.675 32.028 103.795 32.916C103.915 33.804 103.975 34.62 103.975 35.364C103.975 36.684 103.771 37.632 103.363 38.208C102.955 38.784 102.379 39.072 101.635 39.072C100.795 39.072 100.147 38.808 99.6906 38.28C99.2346 37.728 98.8866 36.84 98.6466 35.616C98.4546 34.512 98.2626 33.204 98.0706 31.692C97.8786 30.18 97.7226 28.632 97.6026 27.048C97.4826 25.464 97.4226 24.036 97.4226 22.764ZM120.628 17.328H119.908C119.836 16.272 119.86 15.276 119.98 14.34C120.1 13.38 120.352 12.612 120.736 12.036C121.144 11.436 121.72 11.136 122.464 11.136C123.136 11.136 123.628 11.352 123.94 11.784C124.252 12.216 124.408 12.816 124.408 13.584C124.408 15.096 124.12 16.392 123.544 17.472L122.896 17.4C124.192 16.944 125.656 16.716 127.288 16.716C128.32 16.716 129.136 16.92 129.736 17.328C130.36 17.712 130.672 18.372 130.672 19.308C130.672 20.196 130.312 20.868 129.592 21.324C128.872 21.78 127.972 22.008 126.892 22.008C126.244 22.008 125.548 21.984 124.804 21.936C124.084 21.864 123.376 21.756 122.68 21.612L123.292 20.856C123.508 21.768 123.712 22.812 123.904 23.988C124.12 25.14 124.312 26.34 124.48 27.588C124.648 28.836 124.78 30.048 124.876 31.224C124.972 32.4 125.02 33.456 125.02 34.392C125.02 35.928 124.78 37.14 124.3 38.028C123.82 38.916 123.112 39.36 122.176 39.36C121.432 39.36 120.844 39.132 120.412 38.676C120.004 38.22 119.704 37.644 119.512 36.948C119.344 36.228 119.236 35.484 119.188 34.716C119.164 33.948 119.152 33.252 119.152 32.628C119.152 31.572 119.2 30.384 119.296 29.064C119.392 27.72 119.524 26.34 119.692 24.924C119.884 23.508 120.1 22.14 120.34 20.82L121.06 21.432C119.836 22.056 118.324 22.368 116.524 22.368C115.42 22.368 114.568 22.164 113.968 21.756C113.368 21.348 113.068 20.712 113.068 19.848C113.068 18.912 113.404 18.192 114.076 17.688C114.748 17.16 115.648 16.896 116.776 16.896C117.52 16.896 118.216 16.944 118.864 17.04C119.536 17.112 120.124 17.208 120.628 17.328ZM139.826 18.768H139.43C139.214 17.712 139.106 16.692 139.106 15.708C139.106 13.956 139.562 12.576 140.474 11.568C141.41 10.56 142.982 10.056 145.19 10.056C146.534 10.056 147.494 10.272 148.07 10.704C148.67 11.112 148.97 11.736 148.97 12.576C148.97 14.112 148.094 14.952 146.342 15.096C145.454 15.192 144.758 15.36 144.254 15.6C143.774 15.84 143.414 16.224 143.174 16.752C142.958 17.256 142.814 17.976 142.742 18.912L142.094 18.84C142.694 18.624 143.378 18.456 144.146 18.336C144.914 18.216 145.67 18.156 146.414 18.156C147.446 18.156 148.274 18.348 148.898 18.732C149.546 19.116 149.87 19.764 149.87 20.676C149.87 21.564 149.534 22.236 148.862 22.692C148.19 23.148 147.362 23.376 146.378 23.376C145.778 23.376 145.142 23.328 144.47 23.232C143.822 23.136 143.174 23.004 142.526 22.836L142.706 22.296C142.946 23.52 143.15 24.864 143.318 26.328C143.486 27.768 143.618 29.22 143.714 30.684C143.81 32.124 143.858 33.48 143.858 34.752C143.858 35.568 143.75 36.336 143.534 37.056C143.318 37.752 142.982 38.316 142.526 38.748C142.094 39.156 141.542 39.36 140.87 39.36C139.862 39.36 139.142 38.964 138.71 38.172C138.278 37.356 138.062 36.348 138.062 35.148C138.062 33.996 138.11 32.7 138.206 31.26C138.326 29.796 138.494 28.296 138.71 26.76C138.95 25.2 139.226 23.7 139.538 22.26L139.97 22.584C138.746 23.112 137.186 23.376 135.29 23.376C134.282 23.376 133.502 23.184 132.95 22.8C132.398 22.416 132.122 21.828 132.122 21.036C132.122 20.172 132.458 19.512 133.13 19.056C133.802 18.576 134.702 18.336 135.83 18.336C136.598 18.336 137.318 18.384 137.99 18.48C138.686 18.552 139.298 18.648 139.826 18.768ZM161.19 39.108C159.27 39.108 157.59 38.688 156.15 37.848C154.734 36.984 153.63 35.76 152.838 34.176C152.07 32.592 151.686 30.708 151.686 28.524C151.686 26.244 152.082 24.252 152.874 22.548C153.666 20.844 154.782 19.512 156.222 18.552C157.686 17.592 159.378 17.112 161.298 17.112C163.362 17.112 165.15 17.58 166.662 18.516C168.174 19.428 169.35 20.712 170.19 22.368C171.03 24.024 171.45 25.956 171.45 28.164C171.45 30.42 171.03 32.364 170.19 33.996C169.35 35.628 168.162 36.888 166.626 37.776C165.09 38.664 163.278 39.108 161.19 39.108ZM161.694 34.248C163.182 34.248 164.358 33.66 165.222 32.484C166.11 31.284 166.554 29.7 166.554 27.732C166.554 25.74 166.11 24.156 165.222 22.98C164.358 21.804 163.182 21.216 161.694 21.216C160.158 21.216 158.946 21.804 158.058 22.98C157.17 24.156 156.726 25.74 156.726 27.732C156.726 29.7 157.17 31.284 158.058 32.484C158.946 33.66 160.158 34.248 161.694 34.248ZM158.49 15.492C158.49 15.108 158.742 14.676 159.246 14.196C159.75 13.716 160.41 13.176 161.226 12.576C162.042 12 162.81 11.508 163.53 11.1C164.274 10.668 164.922 10.452 165.474 10.452C165.954 10.452 166.374 10.596 166.734 10.884C167.094 11.148 167.382 11.472 167.598 11.856C167.814 12.24 167.922 12.6 167.922 12.936C167.922 13.392 167.694 13.776 167.238 14.088C166.806 14.4 166.146 14.712 165.258 15.024C164.562 15.264 163.83 15.48 163.062 15.672C162.294 15.864 161.574 16.02 160.902 16.14C160.254 16.236 159.714 16.284 159.282 16.284C159.042 16.284 158.85 16.212 158.706 16.068C158.562 15.9 158.49 15.708 158.49 15.492ZM178.971 39.072C178.227 39.072 177.639 38.904 177.207 38.568C176.775 38.208 176.427 37.62 176.163 36.804C175.803 35.604 175.527 34.092 175.335 32.268C175.167 30.42 175.083 28.152 175.083 25.464C175.083 23.808 175.143 22.152 175.263 20.496C175.407 18.816 175.587 17.292 175.803 15.924C176.019 14.532 176.247 13.452 176.487 12.684C176.751 11.868 177.063 11.304 177.423 10.992C177.783 10.68 178.191 10.524 178.647 10.524C179.127 10.524 179.511 10.692 179.799 11.028C180.087 11.34 180.315 11.904 180.483 12.72C180.627 13.512 180.735 14.484 180.807 15.636C180.903 16.788 180.951 18.024 180.951 19.344C180.951 21.144 180.867 23.04 180.699 25.032C180.531 27.024 180.303 28.98 180.015 30.9C179.751 32.82 179.427 34.584 179.043 36.192L178.035 35.688C178.659 34.92 179.367 34.32 180.159 33.888C180.975 33.456 181.719 33.24 182.391 33.24C182.943 33.24 183.363 33.396 183.651 33.708C183.963 33.996 184.119 34.452 184.119 35.076C184.119 35.7 183.843 36.324 183.291 36.948C182.763 37.572 182.103 38.088 181.311 38.496C180.519 38.88 179.739 39.072 178.971 39.072ZM190.555 11.388C191.515 11.388 192.199 11.652 192.607 12.18C193.039 12.708 193.255 13.32 193.255 14.016C193.255 14.88 192.991 15.552 192.463 16.032C191.959 16.488 191.239 16.716 190.303 16.716C189.391 16.716 188.707 16.464 188.251 15.96C187.795 15.432 187.567 14.82 187.567 14.124C187.567 13.212 187.843 12.528 188.395 12.072C188.947 11.616 189.667 11.388 190.555 11.388ZM190.771 19.416C191.539 19.416 192.139 20.136 192.571 21.576C193.027 23.016 193.255 25.308 193.255 28.452C193.255 32.316 192.979 35.1 192.427 36.804C191.875 38.508 191.035 39.36 189.907 39.36C189.043 39.36 188.407 38.736 187.999 37.488C187.591 36.216 187.387 34.008 187.387 30.864C187.387 27 187.699 24.132 188.323 22.26C188.971 20.364 189.787 19.416 190.771 19.416ZM206.401 39.108C204.481 39.108 202.801 38.688 201.361 37.848C199.945 36.984 198.841 35.76 198.049 34.176C197.281 32.592 196.897 30.708 196.897 28.524C196.897 26.244 197.293 24.252 198.085 22.548C198.877 20.844 199.993 19.512 201.433 18.552C202.897 17.592 204.589 17.112 206.509 17.112C208.573 17.112 210.361 17.58 211.873 18.516C213.385 19.428 214.561 20.712 215.401 22.368C216.241 24.024 216.661 25.956 216.661 28.164C216.661 30.42 216.241 32.364 215.401 33.996C214.561 35.628 213.373 36.888 211.837 37.776C210.301 38.664 208.489 39.108 206.401 39.108ZM206.905 34.248C208.393 34.248 209.569 33.66 210.433 32.484C211.321 31.284 211.765 29.7 211.765 27.732C211.765 25.74 211.321 24.156 210.433 22.98C209.569 21.804 208.393 21.216 206.905 21.216C205.369 21.216 204.157 21.804 203.269 22.98C202.381 24.156 201.937 25.74 201.937 27.732C201.937 29.7 202.381 31.284 203.269 32.484C204.157 33.66 205.369 34.248 206.905 34.248Z" fill="white" fill-opacity="0.98"/>
<path d="M18.0673 10.5497C18.7216 10.0071 18.7746 9.07842 18.1858 8.47547C17.597 7.87254 16.5892 7.82366 15.935 8.36632L12.2428 11.4286C10.6781 12.7263 9.38014 13.8028 8.4889 14.7792C7.55171 15.8058 6.8855 16.9089 6.8855 18.2705C6.8855 19.6322 7.55171 20.7353 8.4889 21.7618C9.38014 22.7383 10.6781 23.8148 12.2428 25.1124L15.935 28.1748C16.5892 28.7175 17.597 28.6685 18.1858 28.0655C18.7746 27.4626 18.7216 26.5339 18.0673 25.9913L14.4623 23.0013C12.7881 21.6126 11.6593 20.6718 10.9281 19.8709C10.2263 19.102 10.073 18.6532 10.073 18.2705C10.073 17.8878 10.2263 17.439 10.9281 16.6702C11.6593 15.8692 12.7881 14.9284 14.4623 13.5398L18.0673 10.5497Z" fill="#5900B9" fill-opacity="0.98"/>
<path d="M32.8163 20.559C33.4052 19.9561 34.4128 19.9071 35.0671 20.4498L38.7593 23.5122C40.324 24.8098 41.6219 25.8863 42.5133 26.8627C43.4505 27.8895 44.1167 28.9924 44.1167 30.354C44.1167 31.7157 43.4505 32.8188 42.5133 33.8454C41.6219 34.8218 40.324 35.8983 38.7593 37.1959L35.0671 40.2583C34.4128 40.801 33.4052 40.752 32.8163 40.149C32.2275 39.5461 32.2806 38.6174 32.9349 38.0748L36.5398 35.0848C38.214 33.6961 39.3428 32.7554 40.0741 31.9544C40.7759 31.1856 40.9292 30.7367 40.9292 30.354C40.9292 29.9714 40.7759 29.5225 40.0741 28.7537C39.3428 27.9527 38.214 27.012 36.5398 25.6233L32.9349 22.6333C32.2806 22.0907 32.2275 21.162 32.8163 20.559Z" fill="#5900B9" fill-opacity="0.98"/>
<path opacity="0.5" d="M30.1319 8.37216C30.9825 8.58052 31.4887 9.38495 31.2626 10.1689L22.7906 39.5439C22.5645 40.3278 21.6916 40.7945 20.841 40.5861C19.9903 40.3778 19.484 39.5733 19.7101 38.7894L28.1822 9.41434C28.4083 8.63038 29.281 8.16379 30.1319 8.37216Z" fill="#5900B9" fill-opacity="0.98"/>
</svg>
