<svg width="96" height="94" viewBox="0 0 96 94" fill="none" xmlns="http://www.w3.org/2000/svg">
<g clip-path="url(#clip0_11_79)">
<path d="M0.39917 10.2572C0.39917 4.59229 5.03937 0 10.7633 0H84.7931C90.5171 0 95.1572 4.5923 95.1572 10.2572V21.9797C95.1572 24.4075 93.1685 26.3756 90.7154 26.3756C88.2624 26.3756 86.2737 24.4075 86.2737 21.9797V10.2572C86.2737 9.44792 85.611 8.79187 84.7931 8.79187H10.7633C9.94563 8.79187 9.28274 9.44792 9.28274 10.2572V83.5227C9.28274 84.3322 9.94563 84.988 10.7633 84.988H90.7154C93.1685 84.988 95.1572 86.9562 95.1572 89.384C95.1572 91.8117 93.1685 93.7799 90.7154 93.7799H10.7633C5.03936 93.7799 0.39917 89.1876 0.39917 83.5227V10.2572ZM28.5305 38.0981C28.5305 35.6703 30.5191 33.7022 32.9723 33.7022H55.1812C57.6343 33.7022 59.623 35.6703 59.623 38.0981C59.623 40.5259 57.6343 42.494 55.1812 42.494H49.2588V73.2655C49.2588 75.6933 47.2701 77.6615 44.817 77.6615C42.3639 77.6615 40.3752 75.6933 40.3752 73.2655V42.494H32.9723C30.5191 42.494 28.5305 40.5259 28.5305 38.0981ZM67.1781 38.5676C69.6578 35.646 73.5447 33.7022 78.8707 33.7022C83.8153 33.7022 87.5458 35.3765 90.0604 38.0091C91.7453 39.7734 91.666 42.5557 89.8834 44.2234C88.1007 45.8911 85.2894 45.8127 83.6045 44.0484C82.9536 43.3672 81.6566 42.494 78.8707 42.494C75.9054 42.494 74.6101 43.4808 73.9806 44.2224C73.2053 45.1354 72.9483 46.2804 72.9483 46.89C72.9483 47.4995 73.2053 48.6445 73.9806 49.5575C74.6101 50.2991 75.9054 51.2859 78.8707 51.2859C79.319 51.2859 79.7519 51.3516 80.1594 51.4739C84.0865 52.0271 87.0548 53.7623 89.0826 56.1514C91.4167 58.9014 92.196 62.1526 92.196 64.4737C92.196 66.7947 91.4167 70.046 89.0826 72.7961C86.603 75.7179 82.7161 77.6615 77.3901 77.6615C72.4455 77.6615 68.715 75.9869 66.2004 73.3546C64.5154 71.5904 64.5948 68.8081 66.3774 67.14C68.1601 65.4724 70.9714 65.551 72.6563 67.3152C73.3072 67.9963 74.6042 68.8696 77.3901 68.8696C80.3554 68.8696 81.6507 67.8826 82.2802 67.1411C83.0554 66.228 83.3125 65.0833 83.3125 64.4737C83.3125 63.8641 83.0554 62.7194 82.2802 61.8062C81.6507 61.0648 80.3554 60.0778 77.3901 60.0778C76.9418 60.0778 76.5089 60.0121 76.1014 59.8896C72.1743 59.3363 69.206 57.6013 67.1781 55.2123C64.8441 52.4619 64.0647 49.211 64.0647 46.89C64.0647 44.5689 64.8441 41.318 67.1781 38.5676Z" fill="#8C20FF" fill-opacity="0.98"/>
</g>
<defs>
<clipPath id="clip0_11_79">
<rect width="94.7581" height="93.7799" fill="white" transform="translate(0.39917)"/>
</clipPath>
</defs>
</svg>
