<svg width="50" height="50" viewBox="0 0 50 50" fill="none" xmlns="http://www.w3.org/2000/svg">
<g clip-path="url(#clip0_15_690)">
<path fill-rule="evenodd" clip-rule="evenodd" d="M39.5525 35.3027C38.95 37.0082 36.555 38.4192 34.645 38.8318C33.3375 39.1094 31.6325 39.329 25.8875 36.9482C19.435 34.2749 10.475 24.7524 10.475 18.4155C10.475 15.1896 12.335 11.4331 15.5875 11.4331C17.1525 11.4331 17.4975 11.4636 18.0125 12.699C18.615 14.1544 20.085 17.7403 20.26 18.1079C20.9825 19.6159 19.525 20.4986 18.4675 21.8115C18.13 22.2066 17.7475 22.6339 18.175 23.3691C18.6 24.0894 20.07 26.4851 22.23 28.4082C25.02 30.894 27.2825 31.6875 28.0925 32.0251C28.695 32.2752 29.415 32.217 29.855 31.7468C30.4125 31.1442 31.105 30.1442 31.81 29.1589C32.3075 28.4537 32.94 28.3656 33.6025 28.6157C34.05 28.7708 39.7375 31.4121 39.9775 31.8347C40.155 32.1423 40.155 33.5972 39.5525 35.3027ZM25.005 0H24.9925C11.21 0 0 11.2134 0 25C0 30.4667 1.76252 35.5383 4.76002 39.6521L1.64501 48.9417L11.2525 45.8716C15.205 48.4874 19.9225 50 25.005 50C38.7875 50 50 38.7866 50 25C50 11.2134 38.7875 0 25.005 0Z" fill="#8C20FF"/>
</g>
<defs>
<clipPath id="clip0_15_690">
<rect width="50" height="50" fill="white"/>
</clipPath>
</defs>
</svg>
